<?xml version="1.0" encoding="UTF-8"?>
<svg width="1200pt" height="1200pt" version="1.1" viewBox="0 0 1200 1200" xmlns="http://www.w3.org/2000/svg">
 <path d="m1047.4 326.86-61.594 716.53c-6.1875 71.766-65.953 126.61-137.76 126.61h-496.03c-71.812 0-131.63-54.844-137.76-126.61l-61.594-716.53h-89.109c-18.516 0-33.516-15-33.516-33.516s15-33.516 33.516-33.516h263.26l16.875-112.08c5.1094-33.938 22.031-63.375 46.406-84.375 24.328-20.953 55.969-33.328 90.328-33.328h239.21c68.812 0 126.52 49.828 136.74 117.75l16.875 112.08h263.26c18.516 0 33.562 15 33.562 33.516s-15.047 33.516-33.562 33.516h-89.109zm-585.66 185.11v405.84c0 18.516 15 33.516 33.516 33.516 18.516 0 33.516-15 33.516-33.516v-405.84c0-18.516-15-33.562-33.516-33.562-18.516 0-33.516 15.047-33.516 33.562zm209.48 0v405.84c0 18.516 15 33.516 33.516 33.516 18.516 0 33.516-15 33.516-33.516v-405.84c0-18.516-15-33.562-33.516-33.562-18.516 0-33.516 15.047-33.516 33.562zm-276.66-252.14h410.9l-15.375-102.14c-5.2969-35.25-34.734-60.609-70.453-60.609h-239.21c-17.812 0-34.172 6.2812-46.641 17.062-12.469 10.922-21.094 25.641-23.812 43.594l-15.375 102.14zm-174.66 67.031 61.125 711.05c3.1875 36.938 33.703 65.016 70.969 65.016h496.03c37.312 0 67.828-28.078 70.969-65.016l61.125-711.05z" fill-rule="evenodd"/>
</svg>
