<?xml version="1.0" encoding="UTF-8"?>
<svg width="1200pt" height="1200pt" version="1.1" viewBox="0 0 1200 1200" xmlns="http://www.w3.org/2000/svg">
 <path d="m790.08 156.14 85.734-85.734c53.953-53.906 141.71-53.906 195.61 0l58.172 58.172c53.578 53.625 53.812 141.42 0.09375 195.32l-495.52 497.29c-32.062 32.156-68.156 52.828-112.08 64.031l-222.24 56.719c-24.094 6.1406-47.766-15.516-40.312-42.234l55.828-220.36c11.156-43.922 31.781-80.344 63.75-112.31zm312.89 475.87v399.71c0 39.188-32.156 71.25-71.25 71.25l-863.44-0.046875c-39.188 0-71.25-32.062-71.25-71.25v-863.34c0-39.188 32.062-71.25 71.25-71.25h402.66c18.516 0 33.562-15 33.562-33.562 0-18.516-15-33.516-33.562-33.516h-402.66c-76.219 0-138.32 62.109-138.32 138.32v863.39c0 76.219 62.109 138.32 138.32 138.32h863.39c76.172 0 138.32-62.109 138.32-138.32v-399.71c0-18.516-15-33.562-33.562-33.562-18.469 0-33.469 15.047-33.469 33.562zm-241.78-452.16 159.14 159.14 61.922-62.203c27.703-27.75 27.797-72.844-0.09375-100.78l-58.266-58.172c-27.703-27.703-73.078-27.703-100.73 0l-61.969 61.969zm111.8 206.63-159.19-159.19-387.28 387.28c-23.859 23.859-37.922 48.516-46.172 81.141l-42.422 167.44 167.68-42.797c32.578-8.2969 57.469-22.453 81.141-46.219z" fill-rule="evenodd"/>
</svg>
