<?xml version="1.0" encoding="UTF-8"?>
<svg id="Layer_1" xmlns="http://www.w3.org/2000/svg" xmlns:xlink="http://www.w3.org/1999/xlink" version="1.1" viewBox="0 0 448 127">
  <!-- Generator: Adobe Illustrator 30.4.0, SVG Export Plug-In . SVG Version: 2.1.4 Build 226)  -->
  <defs>
    <style>
      .st0 {
        fill: none;
      }

      .st1 {
        clip-path: url(#clippath);
      }
    </style>
    <clipPath id="clippath">
      <rect class="st0" x="133.18" y="25.49" width="298.07" height="75.94"/>
    </clipPath>
  </defs>
  <path d="M57.64,85.38c-12.63-1.53-21.53-10.62-21.53-22.39,0-4.79,1.72-9.95,4.59-13.4-1.24-3.16-1.05-9.86.38-12.63,3.83-.48,9,1.53,12.06,4.31,3.64-1.15,7.46-1.72,12.15-1.72s8.52.57,11.96,1.63c2.97-2.68,8.23-4.69,12.06-4.21,1.34,2.58,1.53,9.28.29,12.54,3.06,3.64,4.69,8.52,4.69,13.49,0,11.77-8.9,20.67-21.72,22.3,3.25,2.11,5.46,6.7,5.46,11.96v9.95c0,2.87,2.39,4.5,5.26,3.35,17.32-6.6,30.91-23.93,30.91-45.36,0-27.08-22.01-49.19-49.1-49.19s-48.9,22.11-48.9,49.19c0,21.25,13.49,38.86,31.68,45.46,2.58.96,5.07-.76,5.07-3.35v-7.66c-1.34.57-3.06.96-4.59.96-6.32,0-10.05-3.45-12.73-9.86-1.05-2.58-2.2-4.12-4.4-4.4-1.15-.1-1.53-.57-1.53-1.15,0-1.15,1.91-2.01,3.83-2.01,2.78,0,5.17,1.72,7.66,5.26,1.91,2.78,3.92,4.02,6.32,4.02s3.92-.86,6.12-3.06c1.63-1.63,2.87-3.06,4.02-4.02Z"/>
  <g class="st1">
    <path d="M204.94,99v-49.72h13.98v49.72h-13.98ZM246.02,99c-9.29,0-12.92-3.98-12.92-12.39v-25.66h-8.85v-11.68h8.85v-9.91l13.98-3.27v13.18h10.35v11.68h-10.35v22.56c0,2.74,1.24,3.8,3.98,3.8h6.37v11.68h-11.41ZM343.47,99.89c-10.88,0-16.81-6.02-16.81-16.99v-33.62h14.07v29.9c0,6.1,2.74,9.47,7.96,9.47,6.02,0,10.62-5.57,10.62-13.18v-26.19h14.07v49.72h-14.07v-8.4c-2.65,5.4-9.02,9.29-15.84,9.29ZM410.61,99.89c-6.78,0-12.97-3.89-15.93-9.47v8.58h-13.98V29.64h14.07v28.75c2.86-6.02,9.32-10.26,15.84-10.26,13.57,0,20.73,9.38,20.26,25.92.48,16.37-6.96,25.83-20.26,25.83ZM405.66,88.12c7.29,0,11.27-5.4,10.79-14.07.47-8.76-3.51-14.16-10.79-14.16-5.81,0-10.41,5.66-10.88,13.45v.8c.48,8.05,5.08,13.98,10.88,13.98ZM304.73,29.64v28.13h-26.37v-28.13h-15.04v69.36h15.04v-27.78h26.37v27.78h15.04V29.64h-15.04ZM166.63,100.33c-20.53,0-33.44-14.07-33.44-36.1s13.18-35.92,34.06-35.92c16.99,0,27.25,7.25,30.52,19.46l-15.22,3.63c-1.86-6.64-7.17-10.26-15.31-10.26-12.12,0-18.67,7.96-18.67,23.09s6.37,23.27,18.31,23.27c10.97,0,17.52-6.72,17.52-18.14v-2.65l3.89,5.4h-22.65v-12.74h33.97v8.05c0,21.15-12.3,32.91-33,32.91ZM211.93,44.59c4.69,0,8.32-3.63,8.32-8.32s-3.63-8.32-8.32-8.32-8.32,3.63-8.32,8.32,3.63,8.32,8.32,8.32Z"/>
  </g>
</svg>