<?xml version="1.0" encoding="UTF-8"?>
<svg id="Layer_1" data-name="Layer 1" xmlns="http://www.w3.org/2000/svg" viewBox="0 0 3.78 3.5">
  <defs>
    <style>
      .cls-1 {
        fill: #000;
        fill-rule: evenodd;
        stroke-width: 0px;
      }
    </style>
  </defs>
  <path class="cls-1" d="M.78.83c.02.07.05.13.09.19,0,0,.02,0,.02,0,.05-.04.1-.06.16-.08.05-.02.1-.05.14-.08.06-.04.13-.08.21-.1.03,0,.06-.03.08-.05.01-.01.01-.03,0-.04,0,0,0-.01-.01-.02-.05-.04-.1-.09-.16-.13-.03-.03-.08-.04-.12-.03-.01,0-.03,0-.04,0-.07,0-.13-.04-.14-.11,0,0,0,0,0,0,0-.08.03-.15.1-.19.08-.05.18-.03.23.05,0,.02.02.03.02.05,0,.02,0,.05,0,.07,0,.02-.01.04-.02.05.03.04.06.07.1.1.01.01.03.02.04.04.03.05.09.06.13.03,0,0,0,0,0,0,.04-.02.08-.03.12-.04.03-.12.05-.23.05-.35,0-.03.01-.06.03-.08.02-.03.05-.05.08-.07.05-.04.12-.03.16.01.02.02.03.05.02.08-.02.07-.07.12-.13.14-.02,0-.04.01-.06.02-.02.06-.04.12-.05.18,0,.03,0,.06.03.08.02.01.03.03.05.05.05.04.06.1.04.16.01.01.02.02.04.03.1.04.21.08.31.12.02,0,.04,0,.05-.02,0,0,0,0,0,0,0-.02.01-.04.01-.07,0-.1-.02-.19-.05-.28-.01-.03-.02-.07-.02-.1,0-.04.02-.08.06-.1.04-.04.1-.06.15-.07.06,0,.11.03.14.09.01.02.01.05,0,.07-.03.08-.1.15-.18.18-.04.02-.05.03-.05.07,0,.08.02.15.03.22.02.01.03,0,.04,0,.07-.04.15-.05.23-.03.04.02.09,0,.13-.02.04-.04.09-.07.13-.11.03-.02.03-.05,0-.08h0s-.03-.09,0-.12c0,0,0,0,0,0,.02-.02.04-.03.06-.05.05-.04.13-.03.17.02.05.04.07.11.05.18,0,.02-.02.04-.03.06-.01,0-.02,0-.03,0-.06-.02-.13,0-.18.05-.01.01-.03.03-.04.04-.04.04-.08.07-.13.09-.01,0-.03.02-.04.03,0,.07-.04.15-.08.21-.05.08-.14.12-.23.1-.03,0-.06-.02-.09-.03-.03-.01-.07,0-.1,0-.1.06-.19.13-.26.22-.01.02-.03.04-.04.06,0,.01,0,.03,0,.04,0,.05.02.1.03.16.04.03.09.04.14.04.07,0,.14,0,.21,0,0,0,.02,0,.03,0,.03-.05.08-.1.14-.12.02-.01.05-.02.08-.01.04,0,.08,0,.11-.01.1-.02.19-.05.28-.1.03,0,.04-.04.03-.07,0-.02,0-.03,0-.04-.01-.04,0-.09.04-.11.01-.01.03-.03.04-.04.02-.03.05-.05.08-.06.04,0,.08,0,.12.01.03,0,.05.03.05.06.01.04.03.08.04.12,0,.02.02.03.03.05.05.04.1.08.15.1.03-.01.07-.03.1-.04.02-.01.05,0,.06.02,0,0,0,.01,0,.02.02.04.02.08,0,.12-.02.04-.06.06-.1.07-.02,0-.05,0-.07,0-.03,0-.04-.02-.05-.05,0-.02,0-.04,0-.06l-.13-.08s-.02,0-.03,0c-.08.04-.17.07-.26.07-.03,0-.07.01-.1.03-.04.02-.09.03-.13.05-.04.01-.07.03-.1.05-.03.03-.01.07-.02.11,0,.01,0,.03-.01.03-.07.03-.08.11-.13.15h0s0,.06.01.08c.01.04.04.07.08.08.03,0,.07.02.1.03.04.02.06.06.04.1,0,0,0,.02-.02.02-.04.05-.08.1-.14.13-.03.02-.07.02-.1,0-.04-.02-.06-.07-.05-.12,0-.03.02-.06.04-.08.02-.03.02-.08,0-.11-.03-.06-.06-.12-.13-.13-.02,0-.04,0-.05.02v.02s-.02.06-.03.09c-.01.03-.02.06,0,.09,0,0,0,.01,0,.02-.01.07-.01.14,0,.2,0,.07-.03.14-.09.19-.02.02-.05.03-.07.02-.03,0-.05-.02-.07-.02-.02,0-.04.02-.04.04-.03.06-.05.11-.08.17-.02.05-.04.1-.06.15,0,.03,0,.05,0,.08,0,.05,0,.1,0,.15,0,.03-.03.06-.07.07-.03,0-.06.02-.09.02-.06.02-.12-.02-.14-.09,0-.02,0-.05,0-.07.02-.05.05-.1.1-.14.01,0,.03-.01.04-.02.02,0,.04,0,.06,0,.02,0,.04-.02.05-.04,0-.06.03-.13.06-.18.02-.05.04-.1.04-.16h-.02c-.07,0-.15.02-.22.03-.06.02-.13.03-.19.03-.07,0-.09.02-.12.09l-.02.05s.02.06.03.09c.01.02.02.05.04.08.02,0,.04.01.06.02.03.01.04.05.03.08-.03.07-.07.12-.13.17-.02.01-.05,0-.06-.01,0,0,0,0,0,0-.02-.05-.02-.11,0-.15.02-.05.01-.1-.02-.14,0-.01-.03-.01-.04,0-.04.08-.07.17-.09.26,0,.03,0,.07.02.1.05.07.02.12-.02.18-.03.04-.07.06-.11.08-.05.01-.09,0-.13-.03-.02-.02-.03-.04-.03-.07-.01-.1.04-.2.14-.24.04-.01.06-.05.07-.08,0-.03.02-.07.02-.1,0-.04,0-.08,0-.12l-.12-.16c-.06,0-.13.02-.19.04-.06.02-.12.04-.19.06-.02,0-.05,0-.07-.01-.02-.01-.04-.03-.06-.04-.01-.04,0-.08.02-.11.03-.03.08-.05.12-.05.02,0,.03,0,.04.01.03.02.05.04.09.07.02,0,.04,0,.06,0,.06-.01.11-.03.17-.05.03-.04.05-.08.06-.12-.05-.07-.11-.14-.18-.21-.02-.02-.05-.03-.07-.03-.06.01-.12,0-.18-.01-.1.04-.19.07-.29.11-.06.02-.1.06-.13.11,0,.02-.02.03-.03.05-.03.03-.07.04-.11,0,0,0,0,0-.01-.01-.01-.02-.03-.05-.04-.07-.02-.04-.02-.08,0-.12.02-.04.04-.07.07-.1.03-.02.06-.03.1-.01.01,0,.03.02.04.03.04.04.1.05.15.02.04-.02.08-.03.12-.05.03-.01.05-.04.05-.07,0-.08.04-.15.11-.2,0-.02,0-.04-.01-.07,0-.04,0-.08,0-.12.02-.06.02-.12.02-.18-.02-.01-.04-.03-.06-.04-.03-.02-.04-.05-.04-.08,0-.05,0-.09.03-.13.02-.03.03-.07.05-.1.03-.05.03-.1,0-.15-.02-.05-.05-.1-.07-.15-.01-.02-.03-.04-.06-.05-.03,0-.07,0-.1-.01-.04,0-.06-.03-.06-.07,0-.02,0-.04,0-.06,0-.08.06-.14.14-.14.02,0,.05,0,.07,0,.03,0,.07.01.1.03.05.03.07.1.04.16,0,0,0,0,0,0-.02.02-.03.05-.04.08ZM1.68,1.37c.02-.07.03-.14.01-.2-.01-.07-.02-.14-.01-.2,0-.02,0-.04,0-.06-.05-.03-.1-.06-.15-.1-.21.07-.4.17-.58.3,0,0-.01.02-.02.03.04.02.08.05.1.1.02.04.02.09.04.14.01,0,.03.01.05.02.07.02.13.03.2.05.05.02.1.03.15.01,0,0,.02,0,.02,0,.04.02.09,0,.11-.02.03-.02.05-.04.08-.06ZM2.03,2.44c0-.05.02-.1.04-.15.03-.04.03-.09,0-.13-.02-.05-.04-.1-.06-.15-.02-.04-.04-.07-.07-.11-.01,0-.03-.01-.04,0-.03.02-.06.03-.09.05-.04.03-.09.03-.13.02-.11-.04-.13,0-.17.08,0,.01-.01.03-.02.04-.04.09-.09.19-.13.28,0,0,0,.02,0,.03.07.03.12.08.16.14.06,0,.12,0,.17,0,.06-.01.13-.03.19-.04.04-.01.09-.03.14-.05ZM1.25,2.36s.03-.02.04-.04c.02-.03.04-.05.06-.08.04-.08.08-.17.11-.25.01-.03.02-.06.03-.09.01-.06-.02-.11-.08-.13-.02,0-.03,0-.05,0-.03,0-.06.02-.08.04-.02.01-.03.03-.03.06,0,.02,0,.04,0,.06,0,.01,0,.02-.02.03-.06.05-.14.04-.19,0-.03-.03-.04-.08-.02-.13.02-.05.07-.08.12-.07.04,0,.08,0,.12-.03.05-.03.1-.04.15-.04.01,0,.02,0,.03,0,.01,0,.02-.02.03-.03,0-.02,0-.04-.01-.05-.01,0-.03-.02-.04-.02-.05-.02-.1-.04-.15-.05-.08-.02-.15-.05-.23-.07-.07-.02-.14.02-.16.09,0,0,0,.02,0,.03-.01.09-.01.17-.02.26,0,.02,0,.04,0,.06.03,0,.05.01.07.02.05.01.09.06.1.11,0,.03,0,.06,0,.09,0,.03,0,.06.03.08.04.04.09.08.13.13l.05.05ZM1.79,1.35s.08.03.12.04c.02,0,.04,0,.05,0,.05-.03.09-.07.13-.11.06-.05.12-.1.19-.15.03-.02.06-.04.08-.08,0-.01-.01-.02-.02-.03-.15-.08-.31-.14-.47-.18h-.02c-.06.02-.09.08-.08.14,0,.05,0,.1.02.15.01.06.01.11,0,.17,0,.02,0,.03,0,.05h0ZM1.74,1.87s.06-.03.09-.06c.03-.04.06-.08.09-.12.02-.03.03-.06.02-.1-.01-.07-.08-.13-.16-.11,0,0,0,0,0,0-.02,0-.04,0-.06,0-.09.02-.14.1-.12.19,0,.03,0,.06,0,.09-.01.02,0,.04.01.05.04.03.09.05.14.05h0ZM2.23,2.17s.06-.1.09-.15c.02-.06.04-.11.05-.17-.02-.03-.05-.03-.08-.03-.08,0-.16,0-.24-.01-.02,0-.03,0-.04.02.04.09.08.18.13.27.01.02.03.05.04.07,0,.01.03.02.05.02h0ZM1.23,2.69s.02.03.03.05c.02.03.07.03.09,0,0,0,0,0,0,0,.04-.05.06-.11.05-.18,0-.03-.03-.05-.06-.04,0,0,0,0,0,0-.03.01-.05.02-.08.04-.04.03-.05.08-.03.13h0ZM2.68.98s0,0,0,0c-.06-.08-.09-.09-.16-.02,0,0-.02.02-.02.02-.02.02-.03.04,0,.06.01.02.02.04.02.06,0,.02.01.03.03.04.03,0,.05,0,.08,0l.07-.15ZM3.33,1.31s-.02-.04-.03-.06c-.01-.03-.05-.04-.08-.04-.05,0-.1.05-.11.1,0,.02,0,.05.03.06,0,0,0,0,0,0,.03,0,.05.02.07.04.03.02.06.01.08-.02,0,0,0,0,0,0,0-.03.01-.05.02-.08h0ZM1.7.62s-.05.02-.06.04c-.03.09-.01.11.09.11h.01c.06,0,.09-.04.11-.08,0-.01,0-.03-.01-.04-.02-.01-.04-.02-.06-.03-.03,0-.05,0-.08,0h0ZM.84,1.98s-.08.04-.09.09c0,.03.01.06.04.07.02,0,.04.01.07.02.02,0,.04,0,.05-.02.01-.01.02-.03.03-.05.01-.03,0-.07-.02-.09-.02-.02-.05-.03-.07-.02h0ZM2.6,1.68s-.03.02-.06.03c-.04.02-.06.06-.06.1,0,.02.02.04.04.05.03.01.06,0,.08-.02.03-.03.05-.06.07-.1,0-.04-.02-.08-.08-.06h0ZM2.27,2.35s-.05-.02-.08-.02c-.02,0-.03,0-.04.02-.02.02-.02.04-.02.06,0,.03.02.06.04.08.02.02.05.02.07,0,0,0,0,0,0,0,.03-.04.04-.09.03-.14h0ZM.78,1.4s.01.01.02.01c.02,0,.04,0,.05,0,.03-.03.06-.06.09-.1,0-.01,0-.03,0-.04-.03-.05-.08-.05-.11,0-.02.03-.03.07-.05.1,0,.01,0,.02,0,.03ZM1.1.38s.02.02.03.02c.01,0,.03,0,.04,0,.03-.02.05-.04.07-.07.02-.02.01-.05-.01-.07,0,0,0,0-.01,0-.06-.01-.11.02-.12.08,0,.02,0,.03,0,.05ZM.62.65s-.07.04-.06.08c0,.02.02.03.05.03.03,0,.07,0,.09-.03,0-.01.01-.03.01-.04,0-.01-.02-.02-.03-.03-.02,0-.04,0-.06,0h0ZM2.69,2.18s-.07.05-.08.1h0s.01.05.03.05c0,0,0,0,0,0,.05-.01.08-.05.09-.1,0-.01,0-.02-.01-.03-.01,0-.03-.01-.04-.02ZM3.04.56s.02.04.05.04c.03,0,.05,0,.08,0,.01,0,.02-.02.02-.04,0-.03-.04-.05-.08-.05-.03,0-.05.02-.06.05ZM2.42.4s.02.03.03.03c.03,0,.06,0,.08-.03,0-.01.01-.03,0-.04,0-.01-.02-.02-.03-.02-.03,0-.05,0-.07.03,0,.01-.01.02-.01.03ZM1.8,3.06s-.04.02-.04.05c0,.01,0,.03,0,.04.01.02.03.02.05.01.02,0,.03-.02.03-.04,0-.02,0-.05-.02-.06,0,0-.01,0-.02,0ZM1.08,3.38s.02.02.03.02c.03,0,.06-.02.07-.05,0,0,0-.01,0-.02-.02-.02-.04-.02-.06-.01-.02.01-.04.04-.04.06ZM.31,2.3s-.02-.03-.04-.02c-.04.02-.06.06-.04.1,0,0,0,0,0,.01,0,0,.02,0,.03,0,.02-.03.03-.06.04-.08ZM1.9.15s.01.01.02.01c.02,0,.04-.01.05-.04,0,0,0-.01-.01-.02-.02,0-.04,0-.05.02,0,0,0,.01,0,.02ZM1.54,3.04h0s0,0,0,0h0Z"/>
  <path class="cls-1" d="M.52,1.41s-.05,0-.08.01c-.05,0-.09.01-.14.01-.06,0-.1.02-.12.08-.01.05-.06.06-.11.06-.03,0-.06-.03-.06-.06-.02-.08-.01-.17.04-.24.03-.05.1-.06.14-.03,0,0,0,0,.01.01h0c.03.09.1.09.17.08.04,0,.07-.01.11-.02.03,0,.05,0,.08-.01.02,0,.04,0,.05.03,0,.01,0,.03-.03.04-.02,0-.04.01-.08.03ZM.09,1.44s0,.02,0,.02c0,0,.01.02.02.02,0,0,.02-.01,0-.02,0,0-.02-.01-.03-.02Z"/>
</svg>