<?xml version="1.0" encoding="UTF-8"?>
<svg id="Layer_1" data-name="Layer 1" xmlns="http://www.w3.org/2000/svg" xmlns:xlink="http://www.w3.org/1999/xlink" viewBox="0 0 89.93 60.27">
  <defs>
    <style>
      .cls-1 {
        fill: url(#Red_Purple_Blue);
        stroke-width: 0px;
      }
    </style>
    <linearGradient id="Red_Purple_Blue" data-name="Red, Purple, Blue" x1="23.74" y1="30.14" x2="67.28" y2="30.14" gradientUnits="userSpaceOnUse">
      <stop offset="0" stop-color="#b7151b"/>
      <stop offset=".02" stop-color="#c42129"/>
      <stop offset=".06" stop-color="#d7323b"/>
      <stop offset=".11" stop-color="#e23c47"/>
      <stop offset=".15" stop-color="#e6404b"/>
      <stop offset=".3" stop-color="#e98a7b"/>
      <stop offset=".47" stop-color="#7c78b8"/>
      <stop offset=".64" stop-color="#00b0b0"/>
      <stop offset=".79" stop-color="#7b76b6"/>
      <stop offset="1" stop-color="#e7322f"/>
    </linearGradient>
  </defs>
  <path class="cls-1" d="M89.44,55.68c-.24-1.98-.48-4.03-.73-5.25-.05-.25-.1-.49-.16-.69-.45-1.53-1.01-3-1.65-4.39-.88-1.88-2.67-2.33-4.4-2.77-1.28-.32-2.49-.62-3.34-1.47h-.01c-.11-.12-.2-.23-.29-.34-.65-.84-.92-1.97-.75-3.02.19-.17.36-.36.48-.55.5-.81.61-1.75.65-2.73.22-.1.39-.31.45-.58.05-.2.05-.39.03-.61,0-.25,0-.5.02-.74.44-.37.52-.96.55-1.5.04-.57.09-1.14.14-1.71.07-.71.13-1.45.17-2.17v-.07c0-1.24-1.42-2.6-1.71-2.86-.11-.1-.24-.26-.37-.43-.3-.38-.65-.81-1.05-.94-.47-.15-.88,0-1.24.12-.12.04-.23.08-.35.11-.56.15-1.04.03-1.59-.1-.24-.05-.48-.11-.74-.15-.97-.16-2.11.14-3.12.79-.46-.24-.97-.35-1.46-.45l-.26-.06c-1.62-.37-3.15-1.02-4.54-1.94-.15-.1-.31-.22-.46-.34-.11-.1-.2-.18-.27-.27-.16-.2-.24-.47-.25-.82.28.05.57.12.84.2l.23.06c.89.24,2.07.5,3.28.41,1.23-.09,2.35-.56,3.15-1.31.38-.36.4-.68.35-.87-.04-.18-.15-.3-.22-.39-.04-.05-.08-.1-.1-.13-.03-.09.05-.18.29-.4.21-.2.46-.43.54-.76.1-.41-.1-.74-.27-1.04-.12-.2-.23-.4-.22-.57,0-.13.09-.27.19-.43.13-.22.28-.46.28-.78,0-.34-.19-.59-.35-.82-.11-.15-.22-.3-.24-.44-.03-.22.12-.47.29-.74.22-.36.49-.81.28-1.3-.09-.22-.25-.36-.4-.49-.12-.1-.22-.19-.24-.29-.02-.11.02-.27.06-.43.05-.18.1-.39.09-.61-.02-.41-.19-.72-.52-.99-.05-.05-.11-.09-.17-.12-.12-.08-.21-.15-.26-.23-.07-.12-.07-.31-.06-.52,0-.27.01-.59-.15-.86-.2-.33-.52-.44-.77-.52-.12-.04-.24-.08-.32-.14-.15-.1-.2-.39-.26-.66-.02-.14-.05-.28-.09-.41-.29-.93-1.18-1.66-2.28-1.86-.07-.01-.14-.02-.21-.03-.19-.03-.37-.06-.53-.12-.15-.06-.32-.2-.35-.39v-.19c0-.15,0-.34-.09-.52-.23-.45-.75-.42-1.05-.4-.42.02-.84-.05-1.25-.22-.09-.04-.17-.07-.26-.11-.35-.16-.7-.32-1.12-.33-.36,0-.67.1-.97.21l-.14.05c-.13.05-.26.08-.37.1-.27.05-.53,0-.8-.05-.04,0-.08-.02-.13-.02l-.11-.02c-.1-.02-.19-.04-.29-.06l-.14-.03c-.57-.15-1.31-.26-1.9.12-.08.05-.16.11-.23.17-.06.05-.12.1-.19.13-.27.16-.62.12-1,.09l-.18-.02c-.25-.02-.47-.02-.67.01-.07.01-.14.02-.21.04l-.07.02c-.27.09-.47.25-.62.46-.07.09-.12.19-.16.29-.05.1-.09.19-.15.25-.1.12-.29.17-.51.22-.31.07-.69.17-.9.54-.15.25-.15.53-.16.78,0,.18,0,.35-.06.46-.07.15-.23.23-.49.35-.25.11-.52.24-.71.5-.18.23-.27.5-.28.81-.09.3-.07.61.06.85.02.04.04.07.07.11,0,.02.02.03.03.05,0,.02.02.03.02.03v.11c.04.12.08.23.1.34.03.11-.03.2-.17.27,0,0-.1.06-.15.09-.42.25-.87.77-.93,1.36-.02.14-.01.27,0,.38v.23c0,.22-.32.49-.52.66l-.03.03c-.05.05-.11.09-.17.14-.28.22-.67.53-.62,1.03.02.25.16.43.27.58.07.09.13.18.15.26.05.17-.06.35-.25.63-.19.3-.43.67-.32,1.11.06.23.2.39.32.54.09.11.17.2.19.3.04.18-.1.4-.26.63-.21.31-.47.7-.32,1.16.1.32.35.48.56.62.11.07.21.14.27.21.15.18.16.49.17.81.01.35.02.74.22,1.07.24.41.67.58.98.71l.05.02c.7.29,1.42.58,2.15.79.81.24,1.62.35,2.38.35.6,0,1.17-.07,1.71-.22.07-.02.13-.04.2-.06-.01.01-.02.02-.03.04-.18.2-.42.36-.64.51-1.4.92-2.92,1.57-4.54,1.94l-.27.06c-.29.06-.59.12-.87.22-1.07-.3-2.22-.34-3.28-.09-.45.1-.89.26-1.3.47-.02-.02-.03-.04-.04-.06-.22-.36-.23-.74-.25-1.17,0-.2-.01-.39-.04-.61-.1-.73-.28-1.53-.49-2.13-.19-.55-.49-1.04-.79-1.51-.17-.28-.35-.54-.49-.83-.49-.93-.7-1.98-.83-2.79-.07-.43-.12-.86-.17-1.29-.04-.35-.09-.69-.13-1.04-.05-.31-.11-.62-.17-.91-.07-.36-.14-.69-.18-1.04-.16-1.39-.7-2.69-1.54-3.78-.64-.82-1.47-1.52-2.4-2.01-1.01-.55-1.95-.73-3.23-.62-1.93.16-3.33.75-4.4,1.86-.95.99-1.64,2.32-2.17,4.2-.19.67-.34,1.36-.49,2.02-.18.81-.37,1.66-.62,2.46-.07.23-.15.46-.23.69-.29.86-.59,1.74-.62,2.67-.01.32,0,.63.02.94.04.6.07,1.16-.11,1.67-.12.32-.32.62-.54.93-.27.4-.56.81-.68,1.3-.06.24-.08.49-.06.77-.47.13-.98.29-1.46.53v-.09c0-.17-.08-.32-.22-.44-.13-.11-.3-.16-.46-.13-.2.03-.32.15-.42.23-.21.19-.35.27-.49.23,0-.01,0-.03.01-.05.06-.22-.02-.45-.22-.61-.2-.16-.44-.2-.66-.1-.11.06-.19.14-.25.21-.02.02-.04.05-.07.07-.11.1-.5.02-1.12-.37-.07-.05-.14-.1-.25-.13-.32-.1-.69.04-.97.39-.03.05-.07.1-.1.14-.1.14-.19.25-.3.3-.15.08-.39,0-.55-.07-.07-.03-.15-.07-.22-.1-.19-.1-.39-.2-.63-.25-.39-.07-.89.07-1.06.47-.03.06-.05.13-.07.2,0,.02-.01.05-.02.08-.03.07-.11.12-.2.15-.1.03-.23.03-.41.02h-.11c-.24-.04-.5-.07-.77.03-.13.05-.23.12-.29.22-.06.1-.09.21-.08.34,0,.3.11.59.31.84h-.03c-.09.02-.18.02-.28.03-.14.01-.29.02-.48.07-.05.02-.15.05-.22.14-.05.06-.12.17-.1.34.02.24.14.41.24.54.05.07.11.15.12.2,0,.02,0,.06-.05.12-.05.06-.11.11-.15.12-.04.01-.08.02-.12.02l-.12.02-.06.03c-.09.06-.12.07-.13.08l-.1.02-.07.07s-.07.09-.1.15c-.04.09-.05.2-.03.32.03.12.11.21.19.27-.09.01-.19.03-.27.08l-.08.05c-.12.1-.21.24-.23.4-.02.17.02.34.13.46.08.09.17.15.26.19-.03.01-.05.02-.08.04l-.08.05c-.23.2-.27.57-.08.81.08.1.18.16.27.2-.07.03-.16.09-.23.2-.12.19-.08.43.09.6.07.08.16.15.25.18.05.02.09.03.14.05.03,0,.07.02.1.04l.03.12.04.02s-.11.09-.16.15c-.2.27-.17.67.08.89.14.11.3.16.42.2.04,0,.07.02.12.02v.02l.07-.03v.02c.07.26.2.5.32.72.14.28.26.54.25.81,0,.08-.02.16-.03.25-.02.12-.05.26-.05.41,0,.35.22.74.63.78.06.2.14.4.22.57.09.2.19.39.32.6l.13.2c.05.08.1.16.16.24v.35c0,.71-.12,1.03-.21,1.16-.01.02-.02.04-.04.05l-.02.02c-.28.3-.93.45-1.41.57-.1.02-.19.05-.27.07-1.63.44-3.22,1-4.73,1.66-.2.08-.39.17-.6.25-1.25.53-2.55,1.07-3.38,2.23-.47.64-.79,1.36-1.14,2.16-.21.48-.51,1.84-.97,4.42-.17.92-.34,1.92-.51,2.92-.48,2.8-.98,5.68-1.31,6.86h.64c.34-1.29.8-3.95,1.28-6.75.17-1,.35-1.99.51-2.92.16-.9.65-3.66.92-4.28.33-.77.64-1.45,1.07-2.05.74-1.02,1.95-1.53,3.13-2.02.2-.08.4-.17.6-.26,1.48-.65,3.04-1.2,4.64-1.63.08-.02.16-.04.25-.06.42-.1.96-.23,1.38-.48.1.13.21.24.32.35.84.77,1.76,1.52,2.88,1.82.11.03.22.06.33.08.14.02.28.04.42.05h.34c.15,0,.3-.01.44-.03.03,0,.07,0,.1-.01.2-.03.38-.07.57-.12.03,0,.07-.02.1-.03.2-.06.4-.12.58-.2h.01c.22-.09.43-.19.62-.29.01,0,.02-.01.03-.02.17-.09.35-.2.53-.31.02-.01.05-.02.07-.04.16-.1.32-.21.48-.33.04-.02.07-.05.11-.08.15-.11.3-.22.45-.35.03-.02.07-.05.1-.08.15-.12.29-.25.42-.37l.02-.02c.41.24.94.37,1.35.47.09.02.17.04.24.06,1.6.43,3.16.98,4.65,1.63.2.09.4.17.61.26,1.17.49,2.38,1.01,3.11,2.02.11.15.21.31.31.48.16.27.3.54.43.84.12.24.22.49.33.74.25.55.65,2.71.93,4.28.17.93.34,1.92.51,2.92.12.69.24,1.37.35,2.02-.01.18-.03.36-.05.54-.01.08-.02.17-.04.25-.07.37-.17.7-.32,1.09-.08.22-.34.9.28,1.41.21.17.44.27.69.34h.03s.05.01.07.02c.09.42.17.79.25,1.08h.64c-.07-.25-.15-.59-.24-.98l.96.1s.06,0,.09.01c.07,0,.13.01.2.02l.44.05c.16.02.33.04.5.05.14.02.27.03.41.04h.1c.11,0,.22.01.32.01h.38c.08,0,.16-.02.24-.03.05,0,.09,0,.13-.02.25-.05.46-.16.65-.26.12-.07.25-.13.37-.17.05-.02.09-.02.14-.02h.12s.04,0,.06-.01c.01,0,.03-.01.04-.02,0,0,.02,0,.03-.01.1-.05.2-.13.28-.3.1-.2.08-.5.02-.88-.02-.09-.03-.18-.05-.28-.02-.13-.05-.25-.05-.33l-.03-.46c-.02-.29-.05-.57-.07-.86v-.07c-.02-.23-.03-.45-.04-.67,0-.07,0-.14-.01-.21-.01-.2-.02-.41-.03-.6v-.11c0-.18-.01-.36-.02-.54v-.59c0-.19,0-.37-.01-.55v-1.35c0-.26.01-.52.02-.78.02-.39.05-.78.07-1.17.06-.78.14-1.56.22-2.33.05-.47.1-.94.14-1.41,0-.07.01-.13.02-.2.04-.46.07-.92.1-1.38v-.11s.02.01.02.02c.11.09.23.17.35.25.02.01.03.02.05.03.12.07.25.14.37.2.02.01.05.02.07.04.13.06.25.12.38.17h.02c.13.05.27.11.39.16.38.15.79.31,1.23.46.06.02.12.04.19.06.07.02.13.05.2.07.11.03.22.06.33.09.03,0,.05.02.08.02.13.03.26.06.38.09.02,0,.04,0,.06.01.11.02.23.04.34.06.04,0,.08.01.12.02.07.01.14.02.2.02.08,0,.16.02.24.03.15.01.31.02.46.02h.15c.11,0,.21,0,.32-.02.07,0,.14-.02.21-.02.08,0,.16-.02.23-.03.07-.01.15-.03.22-.05.07-.02.14-.03.21-.05s.14-.04.2-.06c.07-.02.14-.05.21-.07.06-.02.12-.05.18-.07.07-.03.15-.07.22-.11l.15-.07c.08-.05.16-.1.24-.15.03-.02.07-.05.1-.07.11-.08.22-.16.31-.25.13-.12.25-.25.37-.39.35-.43.62-.91.87-1.39,0-.01.01-.02.02-.04.18-.34.37-.69.58-1,.07-.11.15-.22.23-.34.09-.13.18-.26.27-.4.01-.02.02-.04.04-.05.85.17,1.42.3,2.22.62.95.39,1.7.95,2.16,1.62.41.61.63,1.34.81,2.05.28,1.11.47,3.31.57,6.38,0,.15,0,.29.01.44.03,1.34.05,2.72.04,4.01,0,1.59-.03,3.05-.06,4.15h.62c.06-2.02.1-5.19.02-8.17,0-.14,0-.27-.01-.41.06-.41.12-.77.19-1.08.05-.23.1-.45.15-.64.43-1.48.97-2.92,1.62-4.3.75-1.61,2.32-2.01,3.99-2.43,1-.25,2.03-.51,2.89-1.05l4.14,2.49c.26.15.58.34.95.36h.07c.28,0,.53-.09.76-.23.04-.02.08-.05.12-.07,0,0,.02-.01.03-.02.18-.12.34-.26.47-.37.49-.44,1.1-.94,1.69-1.43.12-.1.25-.21.37-.31l.39-.32c.15-.12.3-.25.44-.37.04-.03.07-.06.11-.1.95.83,2.21,1.14,3.43,1.45,1.66.42,3.23.81,3.99,2.43.63,1.35,1.18,2.8,1.62,4.3.05.19.1.41.15.64.24,1.2.48,3.23.72,5.21.2,1.6.39,3.26.59,4.46h.64c-.2-1.19-.4-2.89-.6-4.53l.11-.07ZM79.23,31.68c-.03.11-.05.2-.06.26-.02.13-.03.27-.04.39-.02.17-.02.32-.03.48v.51c0,.15.01.28-.02.39-.02.08-.07.15-.1.16l-.35-.05v.35c-.04.99-.11,1.93-.57,2.67-.11.17-.26.34-.44.5-.37.32-.9.61-1.57.87-1.14.44-2.35.48-3.41.11-.58-.2-1.02-.48-1.39-.86-.18-.18-.34-.39-.48-.62-.47-.74-.53-1.68-.57-2.67v-.35l-.35.06c-.05-.02-.09-.09-.12-.17-.02-.11-.02-.24-.01-.42v-.52h.02l-.05-.56c0-.09-.02-.18-.03-.27,0-.06-.03-.15-.07-.26-.02-.09-.09-.3-.1-.42l.68,2.12-.08-2.55c0-.18-.02-.37-.04-.55-.08-.87-.1-1.43.54-1.73.1-.05.2-.1.3-.14.28-.12.57-.25.81-.45.01-.01.02-.02.04-.03.23-.2.39-.46.51-.72.07-.16.13-.31.19-.44.14-.35.28-.7.53-.93.72-.67,2.93-.26,3.95.11.86.31,1.53.91,1.82,1.6.26.64.16,1.57.08,2.39-.03.31-.06.62-.07.9v.32l-.08,2.21.69-2.15c0,.12-.07.37-.1.47h-.02ZM70.43,24.37c.17-.14.36-.26.54-.36.67-.39,1.37-.59,2.02-.59.15,0,.3,0,.44.03.24.04.47.09.69.15.59.14,1.19.28,1.9.1.14-.03.27-.08.4-.12.32-.12.58-.2.85-.12.22.07.51.44.75.73.15.19.29.37.44.5.77.7,1.54,1.73,1.51,2.44-.03.71-.1,1.44-.17,2.15-.05.47-.09.95-.12,1.42,0,0-.08-.05-.14-.06-.06-.02-.12-.02-.18-.03.02-.19.03-.39.05-.6.09-.89.19-1.9-.12-2.68-.35-.85-1.16-1.58-2.18-1.96-.85-.3-3.52-.96-4.58.02-.22.2-.37.44-.49.69-.07.16-.14.32-.2.47-.07.19-.15.39-.25.56-.07.14-.17.27-.28.37-.18.16-.42.27-.68.38-.11.05-.22.1-.33.15-1.05.51-.96,1.53-.88,2.35,0,.09.02.18.02.27-.06,0-.12.01-.19.03-.08.02-.15.07-.18.1-.05.03-.08.07-.11.12,0,.01-.01.03-.02.04-.02.03-.03.06-.04.1,0,.02,0,.04-.01.06,0,.03-.02.06-.02.09v.18c-.11-.27-.12-.57-.14-.92-.06-1.88.15-3.21.73-4.58.22-.51.5-1.08.98-1.44l-.02-.04ZM60.51,22.36c.05.11.09.22.12.34.07.29.09.62.05.95-.01.1-.02.21-.05.32-.09.43-.26.84-.46,1.23-.08-.09-.15-.2-.23-.29-.09-.12-.19-.23-.27-.35-.07-.1-.12-.21-.19-.31-.08-.12-.16-.25-.23-.38-.04-.07-.06-.14-.1-.2-.09-.18-.18-.35-.25-.54,0-.02-.01-.04-.02-.06-.1-.23-.18-.47-.25-.72v-.03s-.02-.09-.05-.15c-.02-.07-.06-.13-.11-.2-.07-.08-.14-.14-.22-.18-.06-.04-.13-.07-.19-.09-.14-.06-.27-.12-.41-.2-.06-.03-.11-.06-.17-.09-.07-.05-.15-.09-.22-.13-.06-.04-.12-.08-.19-.12-.07-.05-.13-.09-.2-.14-.05-.04-.1-.08-.15-.12-.03-.02-.06-.05-.09-.07.1-.15.16-.32.21-.5h.02l.03-.18c.03-.15.04-.3.04-.46v-.13c0-.11,0-.22-.01-.33.07.07.15.13.22.2.21.18.41.33.64.47l.06.04c.33.2.66.34.99.42.12.02.23.03.34.04h.7c.38.01.79-.07,1.19-.25.09-.04.19-.08.28-.14l.15-.08c.19-.12.37-.25.54-.38.03-.02.05-.04.08-.06.16-.13.31-.26.46-.39,0,0,.02-.01.02-.02v.05c0,.08-.02.17-.02.26l-.02.31h.02c0,.53.13.95.39,1.27.03.04.07.08.1.12,0,0-.02.01-.02.02-.01,0-.02.02-.04.03-.07.06-.15.12-.23.17-.02.01-.03.02-.05.03-.08.05-.17.1-.25.15-.01,0-.02,0-.03.02-.1.05-.19.1-.29.14-.42.18-.88.28-1.33.28h-.49l.21.44-.03-.03ZM62.83,17.98c-.13.13-.26.25-.39.37l-.12.11c-.34.31-.73.66-1.15.91l-.13.08c-.07.04-.15.07-.22.11-.32.14-.63.2-.91.2h-.36c-.2,0-.39.01-.57-.03-.27-.06-.55-.17-.82-.35l-.05-.03c-.18-.12-.36-.25-.55-.41-.15-.13-.3-.26-.44-.4l-.1-.09c-.11-.1-.22-.2-.32-.3-.33-.32-.67-.67-.91-1.09-.21-.36-.38-.8-.49-1.31l-.08-.35-.34.12h-.02l-.05-.87v-.28c.01-.06.03-.12.05-.18.04-.14.09-.29.08-.47,0-.07-.01-.15-.02-.21,0-.02,0-.05-.01-.07l.25.08.05-.37c.14-1.09.44-2.21.89-3.33.39-1,.92-1.7,1.56-2.09.2-.12.37-.2.52-.23.16-.05.34-.05.53-.07h.13c.67-.03,1.36-.06,2.02.01.36.04.73.15,1.03.3.21.1.38.23.51.38.39.46.74,1.05.99,1.72.43,1.12.72,2.24.84,3.3l.04.35.24-.06v.07c-.01.07-.02.14-.02.21,0,.17.04.32.08.45.02.06.04.13.05.19v.41c-.02.25-.03.51-.05.76h-.02l-.34-.15-.08.36c-.12.53-.3.98-.51,1.33-.17.29-.41.57-.74.89l-.05.03ZM55.64,20.07c-1.12.3-2.42.26-3.77-.13-.7-.2-1.41-.49-2.09-.77l-.05-.02c-.31-.12-.55-.24-.68-.45-.11-.2-.12-.48-.13-.78-.02-.39-.03-.85-.32-1.19-.12-.15-.27-.25-.41-.33-.17-.11-.27-.18-.31-.29-.05-.15.06-.34.25-.62.2-.3.45-.67.35-1.11-.05-.25-.2-.42-.32-.57-.09-.11-.17-.2-.19-.29-.04-.18.09-.39.25-.63.2-.31.44-.69.32-1.13-.05-.2-.16-.35-.25-.47-.07-.1-.14-.2-.15-.28-.02-.15.14-.28.38-.47.07-.05.13-.1.19-.15l.04-.03c.28-.24.71-.61.74-1.09v-.58c.04-.38.35-.73.63-.89.04-.03.09-.05.13-.07.25-.13.62-.33.48-.96-.02-.11-.05-.22-.09-.33,0-.13-.05-.23-.1-.31-.02-.03-.04-.07-.06-.1,0-.02-.02-.03-.03-.05-.06-.11-.06-.25-.01-.4l.02-.1c0-.2.05-.36.16-.5.1-.13.28-.22.47-.3.29-.13.62-.29.79-.66.11-.24.11-.49.12-.71,0-.19,0-.36.07-.47.08-.14.25-.19.52-.25.28-.07.59-.15.82-.42.11-.12.18-.27.24-.39.03-.07.07-.15.11-.2.07-.1.18-.17.32-.22h.03s.1-.04.15-.05c.14-.02.31-.02.51,0l.18.02c.44.05.93.1,1.38-.17.09-.05.17-.12.26-.18.05-.05.11-.09.18-.13.39-.25.92-.17,1.39-.05l.17.04c.1.02.19.04.28.06l.12.02c.06.01.11.02.16.03.3.06.64.11,1.02.05.15-.03.31-.07.47-.13l.15-.05c.25-.09.5-.18.74-.17.3,0,.58.14.88.27.09.04.18.08.27.12.49.2,1,.29,1.52.26.17,0,.42-.02.47.06.02.05.02.14.02.23,0,.1,0,.2.02.29.05.38.33.7.73.87.23.1.46.13.68.17.06.01.12.02.19.03.66.12,1.52.56,1.79,1.43.03.1.05.22.07.34.07.36.15.81.52,1.06.15.1.32.16.47.21.22.07.36.12.44.25.07.12.07.32.06.53,0,.27-.01.57.15.85.12.2.29.32.44.42.05.03.09.07.14.1.19.15.27.3.28.54,0,.12-.03.26-.07.41-.06.22-.12.46-.07.72.06.3.27.48.43.63.1.09.2.17.24.27.07.18-.04.39-.25.72-.2.33-.43.71-.37,1.15.04.29.2.52.35.72.12.17.22.32.23.46,0,.14-.09.28-.19.44-.12.2-.26.43-.27.71-.02.36.15.66.3.92.15.26.24.42.2.58-.04.15-.2.3-.36.44-.27.25-.63.58-.44,1.07.05.14.13.24.2.32.04.05.09.1.1.14,0,.03-.02.12-.17.27-.69.65-1.67,1.06-2.77,1.14-1.12.09-2.24-.16-3.08-.39l-.22-.06c-.32-.08-.64-.17-.97-.22.01-.1.02-.19.04-.28l.05-.28c.01-.07.02-.14.04-.2.03-.03.06-.06.09-.1l.12-.12c.04-.05.08-.09.12-.14.03-.03.06-.07.09-.1.04-.05.08-.1.12-.15.02-.03.05-.06.07-.09.06-.08.11-.16.16-.24.21-.34.38-.75.51-1.22.11,0,.22-.02.31-.09.21-.15.22-.4.23-.49,0-.26.02-.53.04-.79v-.09c.01-.15.02-.3,0-.45-.02-.09-.04-.18-.07-.27-.03-.1-.06-.19-.05-.26,0-.04,0-.09.01-.13.01-.07.02-.13.02-.2,0-.25-.11-.47-.32-.58-.15-1.04-.43-2.12-.85-3.21-.28-.73-.66-1.39-1.1-1.9-.18-.21-.42-.39-.7-.53-.49-.25-.99-.33-1.24-.36-.71-.07-1.43-.05-2.12-.02h-.14c-.22.02-.44.03-.66.09-.27.07-.5.2-.68.3-.76.45-1.37,1.26-1.82,2.39-.44,1.09-.74,2.17-.89,3.24h-.03c-.19.1-.31.31-.31.58,0,.07.01.14.02.21,0,.04.02.08.02.12,0,.07-.02.17-.05.27-.03.08-.05.17-.07.26-.02.14-.02.28-.01.4l.05.93c0,.1.02.35.23.49.09.06.19.08.3.08.12.45.29.85.49,1.19.07.12.14.23.22.33.03.04.06.07.09.11.05.07.1.13.16.2.04.04.08.08.12.13l.15.15c.05.05.09.1.14.14.03.03.05.06.08.08.01.07.02.13.04.2,0,.03.01.07.02.1.02.12.04.25.05.38v.1c0,.09.02.19.02.28v.28c-.08.02-.15.05-.22.08-.15.05-.29.1-.44.13h-.02ZM25.07,22.86c.1-.39.33-.73.59-1.1.23-.33.47-.67.61-1.07.23-.63.19-1.28.15-1.92-.02-.3-.03-.59-.02-.87.03-.84.3-1.65.59-2.49.08-.24.16-.47.24-.71.25-.83.45-1.68.64-2.51.15-.66.3-1.33.48-1.98.5-1.78,1.14-3.03,2.02-3.94.96-.99,2.22-1.52,4-1.67,1.16-.1,2,.06,2.89.55.85.45,1.61,1.09,2.2,1.85.78,1,1.27,2.2,1.42,3.47.04.37.12.74.19,1.09.06.29.12.59.16.88.05.34.09.68.13,1.02.06.44.11.88.18,1.31.14.86.36,1.98.89,2.99.16.3.34.59.52.87.29.46.57.89.73,1.38.2.57.37,1.31.46,2.01.02.17.03.35.03.54.01.41.02.83.22,1.25h-.01c-.21-.08-.42-.15-.62-.21-.21-.06-.42-.12-.62-.17-1.35-.32-4.07-1.38-4.94-1.73-.05-.02-.1-.04-.13-.05-.01-.05-.02-.09-.03-.14-.02-.07-.04-.15-.05-.22-.02-.08-.03-.15-.05-.23-.01-.07-.03-.14-.04-.22-.01-.07-.02-.15-.03-.23-.01-.07-.02-.14-.03-.21,0-.07-.01-.15-.02-.23,0-.07,0-.13-.01-.2v-.24c0-.06,0-.12.01-.19,0-.08.02-.17.04-.25,0-.06.02-.12.03-.17.02-.1.05-.19.09-.28.02-.05.02-.09.05-.14.06-.14.12-.27.2-.41.04-.07.08-.13.12-.2l.21-.34c.09-.14.21-.32.31-.52l.26-.6s.04-.1.05-.16v-.03c.03-.09.05-.17.06-.25.02-.1.03-.2.04-.28,0-.12.01-.24.02-.35v-.48l-.09-4.11v-.05c0-.3-.01-.71-.27-.98-.05-.05-.12-.1-.2-.14-.07-.04-.16-.06-.26-.07-.15-.01-.29.02-.43.06-.04,0-.07.02-.14.03h-.07c-.23.01-.45,0-.68-.02.09-.31-.89-2.7-.96-2.65h-.02c-.06.06.03.89.08,1.13l.04.25c.03.27.04.53.04.79,0,.07-.01.16-.03.23,0,0,0,.03-.01.04,0,.01-.02.03-.04.06h-.1s-.06,0-.09-.02c-.04-.01-.09-.03-.13-.05-.06-.02-.12-.05-.16-.06l-.1-.03c-.12-.03-.23-.05-.35-.07l-.32-.06c-.07-.02-.15-.04-.24-.07-.02,0-.05-.02-.08-.03-.12-.06-.22-.13-.3-.2-.09-.09-.16-.17-.2-.26-.02-.04-.03-.07-.04-.1,0-.03-.02-.06-.02-.1v-.5l-.47.28s-.07.05-.12.1c-.04.04-.07.08-.09.14-.03.05-.05.11-.05.17v.23c0,.05.02.1.03.15.01.05.02.1.02.14,0,.03-.04.06-.06.08-.03.02-.07.04-.11.06-.04.01-.09.02-.15.02-.39.02-.56,0-.61,0-.02-.04-.06-.16-.09-.42-.02-.22-.16-1.45-.16-1.45v-.02h-.04l-.03.03-.05.03-.02.05s-.03.03-.03.04c-.04.03-.07.07-.1.11v.02c-.12.15-.22.3-.3.47l-.09.19c-.03.07-.06.15-.08.22-.02.05-.03.11-.03.15-.02.09-.02.2-.03.32,0,.1-.02.25-.03.35-.1-.03-.25-.07-.4-.03l-.27.15-.03.03-.03.04s-.05.05-.06.07c-.07.09-.12.19-.17.3l-.05.14c-.14.41-.2.91-.16,1.38v.22c.02.07.03.15.04.23.02.15.04.31.05.46,0,.07.02.15.02.25v.22c0,.1-.01.19-.02.28l-.02.27c0,.12,0,.28.06.46.06.2.15.39.24.59l.2.44c.04.1.08.21.11.31.06.21.07.4.05.56-.01.07-.03.13-.05.2l-.04.18c-.01.07-.02.13-.02.2,0,.17.04.33.11.47l.06.11c.05.08.1.15.15.22.02.03.04.06.06.09l.05.09s.04.06.05.1c.12.34.16.7.1,1.09-.11.69-.44,1.36-.76,2.01l-.18.37h0s-.1.21-.1.21c-.05.11-.1.22-.14.32,0,.01-.01.02-.02.04-.09.2-.16.39-.22.57-.06.18-.09.35-.11.51-.05.58.18,1.02.41,1.45.1.18.2.37.28.57.11.26.19.53.26.81.3,1.15.3,2.47,0,3.86l-.02.07s0,.05-.02.09c-.02.07-.04.14-.05.21-.01.04-.02.08-.04.12-.02.06-.04.12-.06.18-.02.08-.05.17-.08.25-.02.05-.03.1-.05.15-.05.13-.1.27-.16.42-.02.06-.05.12-.07.17-.04.1-.08.2-.13.31-.52,1.24-1.16,2.46-1.28,2.65-.04.04-.07.08-.11.12l-.02.02s-.08.1-.12.12c-.1.07-.29.03-.5-.01-.12-.02-.25-.05-.38-.06-.25-.02-.48.04-.7.11-.12.04-.23.08-.35.13-.18.07-.35.13-.51.17-.07.02-.15.02-.21.03-.29,0-.59-.15-.84-.39-.06-.06-.12-.12-.17-.2-.04-.05-.07-.1-.1-.15.03-.07.07-.14.11-.21l.04-.07c.15-.28.32-.6.37-.96.02-.22-.05-.48-.18-.71.04-.04.07-.08.1-.13l.12-.22-.18-.13s.08-.05.14-.07c.21-.07.36-.16.46-.27.11-.12.16-.26.15-.4-.01-.33-.28-.49-.46-.59-.04-.02-.09-.05-.12-.07.03-.02.09-.05.17-.07.21-.05.65-.15.74-.57.02-.12,0-.22-.03-.31-.09-.21-.28-.28-.4-.32-.02-.01-.07-.02-.07-.02,0-.02,0-.1.05-.21.06-.12.15-.3.1-.52-.09-.37-.48-.45-.66-.49.01-.03.02-.06.03-.09.1-.09.2-.23.18-.43,0-.06-.02-.11-.04-.15.06-.37.09-.74.05-1.12-.04-.4-.15-.8-.26-1.18-.09-.32-.17-.62-.22-.91v-.07c-.03-.29-.02-.53.03-.75h-.05ZM37.16,20.14c0,.11.02.23.03.34v.06c.01.1.03.21.05.32v.05c.02.12.04.23.07.35,0,.02,0,.04.01.06.02.11.05.21.07.32v.02s-.05.02-.08.03c-.09.03-.19.07-.29.1-.06.02-.12.04-.18.06-.1.03-.2.06-.31.08-.06.02-.13.03-.2.05-.1.02-.21.05-.32.07-.07.02-.14.02-.21.04-.11.02-.21.03-.32.04-.07,0-.15.01-.22.02-.1,0-.21.02-.31.02h-.53c-.08,0-.16-.02-.24-.03-.09-.01-.18-.02-.27-.04-.09-.02-.17-.05-.25-.07-.07-.02-.15-.04-.22-.07-.02,0-.09-.03-.19-.06-.32-.1-.59-.2-.82-.28-.1-.04-.2-.07-.29-.1-.06-.02-.12-.04-.17-.06-.02,0-.04-.01-.05-.02-.39-.14-.63-.24-.77-.31.02-.03.04-.07.05-.11.35-.69.7-1.4.82-2.19.02-.11.02-.22.03-.34v-.27s.06.03.08.05c.12.08.26.15.39.22.04.02.08.05.13.07.17.08.36.16.56.23.04.01.08.02.12.04.17.05.34.11.52.15.06.02.12.03.19.05.22.05.45.1.7.15.1.02.17.02.24.03h.14c.07,0,.14-.01.24-.03.17-.03.35-.06.51-.1.05,0,.1-.02.15-.03.11-.03.22-.05.33-.08.05-.02.11-.03.17-.05.1-.03.2-.06.29-.09.05-.02.1-.04.15-.06.1-.04.2-.08.3-.12.02-.01.06-.02.09-.03,0,.01,0,.02-.01.04-.04.11-.08.22-.1.34v.02c-.02.11-.05.22-.06.33v.07c-.02.12-.02.23-.03.35v.43-.05ZM37.38,17.87c-.18.1-.37.18-.58.26-.01,0-.02,0-.04.01-.21.08-.44.15-.68.22h-.02c-.25.06-.51.12-.78.16-.19.03-.22.03-.41,0-.17-.03-.35-.06-.51-.1-.06-.01-.11-.03-.17-.05-.1-.02-.21-.05-.3-.07-.06-.02-.12-.04-.19-.06-.08-.03-.17-.05-.25-.08-.06-.02-.11-.05-.17-.07-.08-.03-.16-.06-.24-.1-.05-.02-.1-.05-.15-.07-.07-.04-.15-.07-.22-.11-.05-.02-.09-.05-.13-.08-.07-.04-.14-.08-.2-.12-.04-.02-.08-.06-.12-.09-.06-.05-.12-.09-.18-.14-.04-.03-.07-.06-.1-.1-.05-.05-.11-.1-.16-.15-.03-.05-.07-.1-.1-.15-.04-.06-.08-.12-.11-.17l-.05-.1c-.03-.06-.04-.12-.04-.19v-.08l.03-.15c.02-.08.04-.15.05-.24.05-.26.02-.53-.06-.84-.04-.12-.08-.25-.14-.38l-.2-.45c-.08-.19-.16-.35-.21-.52-.03-.1-.04-.18-.04-.28l.02-.21c0-.1.02-.2.02-.32v-.28c0-.08-.01-.17-.02-.26-.02-.16-.04-.32-.06-.49,0-.07-.02-.14-.02-.19v-.19c-.04-.41,0-.82.11-1.14l.02-.05s.02-.07.02-.08c.03-.06.05-.11.08-.15,0,0,.01-.02.02-.02l.13-.03h.02s.06.02.09.02c.12.03.23.02.35-.02.03-.01.1-.04.15-.09.07-.07.12-.15.15-.26.05.07.1.12.16.16.16.1.43.13,1.02.1.1,0,.19-.02.3-.06.1-.03.17-.07.25-.12.14-.1.24-.22.3-.35.12.1.26.2.41.27.06.02.11.05.16.06.1.03.19.06.3.09l.34.06c.1.02.19.04.29.07l.05.02s.08.03.13.05c.06.02.12.05.18.07.05.02.1.02.14.03.06.02.14.03.19.02h.09s.07-.01.09-.02c.08-.02.15-.05.21-.09.02.02.04.05.06.07.03.02.07.06.12.09.08.05.18.07.27.08.27.03.54.04.81.02.08,0,.17-.02.19-.02.06,0,.12-.02.17-.04.06-.01.17-.05.22-.04l.06.02c.09.09.09.39.1.55l.09,4.09v.07c0,.25,0,.51-.02.77,0,.07,0,.14-.02.22-.01.07-.02.14-.05.21v.05c-.04.09-.07.18-.11.27l-.02.06c-.03.07-.07.15-.12.25l-.04.07c-.07.14-.16.27-.25.41l-.07.1s-.02.02-.04.03c-.15.11-.31.21-.49.3-.01,0-.03.02-.05.02l-.03.04ZM24.5,24.09s.02.08.03.12c.03.15.07.3.11.44.01.04.02.08.03.12.07.25.13.48.18.72-.13-.14-.29-.22-.42-.29-.22-.12-.27-.16-.29-.27v-.07c-.02-.15-.04-.42-.26-.57.21-.07.42-.13.62-.19h0ZM24.91,26.39s0,.1-.01.15c-.03,0-.07-.02-.11-.03l.12-.12h0ZM13.1,31.52c-.17.13-.31.32-.4.55-.02.07-.05.13-.06.2-.07-.02-.15-.04-.18-.1.01-.01.05-.04.07-.06.05-.03.09-.07.12-.1.04-.04.17-.16.19-.37.01-.19-.08-.35-.25-.47-.01-.03-.03-.05-.05-.07-.12-.14-.27-.2-.39-.23.17-.15.27-.38.25-.64v-.19l-.37-.15s-.03,0-.05-.02c.13-.03.36-.09.47-.34.11-.29-.1-.57-.34-.69-.03-.02-.07-.03-.13-.05-.02,0-.04-.02-.06-.02h.06c.05,0,.11-.01.15-.02.11-.02.22-.07.31-.14l.55-.15-.32-.37s-.07-.08-.11-.13v-.04l-.12-.1h-.01s.09-.03.13-.04c.18-.06.35-.19.47-.35.14-.2.2-.42.15-.62-.04-.18-.14-.32-.22-.42-.02-.03-.05-.06-.06-.09.06,0,.12,0,.17-.01.11,0,.22-.02.32-.03.39-.05.66-.32.62-.63-.01-.17-.12-.3-.2-.4-.1-.11-.15-.25-.17-.42.12-.03.27-.01.44,0h.12c.18.03.41.05.65-.02.28-.08.49-.26.6-.5.02-.06.04-.12.06-.17,0-.03.01-.06.03-.1.04-.09.22-.15.38-.12.15.03.31.11.47.19.08.04.16.08.25.12.42.18.78.2,1.08.05.24-.12.39-.32.52-.49.03-.04.06-.08.09-.12.1-.12.23-.2.3-.19.02,0,.05.03.08.05l.04.02c.83.53,1.44.64,1.83.31l.12-.12s.06-.07.05-.05c-.02.05-.04.11-.05.2,0,.23.15.45.4.55.54.2.98-.2,1.15-.35.01-.01.03-.03.05-.04v.04c-.01.11,0,.22.04.32.07.21.23.38.43.46.02.01.04.02.06.02.19.06.37.01.5-.02.05-.01.11-.02.15-.02,0,.03,0,.08.01.11v.08c.05.47.4.65.63.77.11.06.22.11.27.18.02.02.02.05.03.05,0,.01-.04.04-.06.06-.08.07-.19.18-.23.34-.06.22.02.46.22.62.12.1.27.15.38.17-.08.07-.16.18-.19.32-.02.1-.01.2.02.29.01.03.03.07.05.1.13.19.35.27.47.3.02,0,.05,0,.06.01.08.01.14.03.17.04,0,.02-.02.05-.04.07-.18.38-.15.74.09.94.06.05.13.09.19.11-.04.01-.09.02-.16.04-.44.11-.7.4-.66.73.03.31.29.46.46.55.03.02.08.05.11.07-.03.02-.08.04-.16.07-.37.13-.59.36-.59.64h-.01l-.1.02c-.15.05-.22.16-.27.24-.02.04-.05.08-.07.12v-.85l-.15-1.6-.06-.65c-.03-.29-.06-.58-.18-.87-.13-.31-.37-.59-.72-.84-.21-.15-.44-.27-.69-.38l-.11-.02c-.2-.02-.39-.03-.58-.04h-.07c-.19,0-.38-.02-.57-.03-.07,0-.15-.01-.22-.02-.17-.02-.34-.05-.5-.09-.27-.05-.54-.1-.84-.12-.23-.01-.47-.02-.75-.02-.54,0-1.08.04-1.61.09l-.25.03c-.13.02-.26.03-.4.05l-.18.03c-.42.07-.83.15-1.27.33-.21.09-.43.19-.61.37-.3.3-.38.69-.44,1.08-.14.87-.25,1.78-.32,2.72,0,.1,0,.31.04.56-.07-.04-.14-.09-.24-.11l-.15-.04-.12.1v-.02ZM24.76,32.59c-.02.2-.11.38-.21.58-.01-.05-.03-.09-.05-.13-.02-.05-.05-.11-.08-.16l.02-.03c.07-.1.07-.21.07-.25,0-.05,0-.11.02-.17v-.03c.02-.05.05-.12.08-.18.09.13.14.3.13.39l.02-.02ZM22.93,39.37c-.13.12-.28.25-.43.37-.01,0-.02.02-.04.03-.15.12-.3.24-.46.35-.02.01-.03.02-.05.04-.15.11-.31.22-.47.32-.02.02-.04.03-.07.04-.14.09-.27.16-.41.24-.02.01-.05.02-.07.04-.13.07-.27.13-.42.2-.5.22-1.11.41-1.76.43-.21,0-.43,0-.65-.04-.24-.04-.47-.12-.69-.2-.81-.33-1.53-.93-2.2-1.54l-.15-.15c-.05-.05-.09-.1-.12-.15.15-.24.25-.57.29-1.01.01.02.03.03.04.05.09.11.18.22.28.33.05.06.1.12.15.18.15.16.32.32.49.48.44.38.87.64,1.32.8.08.03.17.05.25.07.03,0,.06,0,.09.02.05,0,.11.02.17.03.03,0,.07,0,.1.01.05,0,.1,0,.16.01h.34c.12,0,.24,0,.35-.01h.07c.12,0,.23-.01.34-.02h.19c.07-.02.15-.02.22-.03v.07h.62c0-.08.01-.16.02-.24.28-.1.55-.25.82-.43.18-.13.35-.27.52-.41.04-.03.08-.07.12-.1.15-.15.3-.29.44-.44.02-.02.03-.03.04-.05.09-.1.17-.19.25-.28.04.43.14.75.3.99v.02-.02ZM22.66,37.27c-.45.64-1.02,1.36-1.76,1.87-.14.1-.28.17-.42.24-.21.11-.43.18-.64.22-.1.02-.2.03-.3.04h-.2c-.57.05-1.15.1-1.63-.07-.37-.13-.74-.35-1.12-.68-.15-.13-.28-.26-.41-.4-.05-.05-.09-.1-.13-.15-.08-.09-.16-.18-.24-.27-.05-.06-.1-.12-.15-.19-.06-.08-.12-.16-.18-.24-.05-.07-.1-.13-.14-.2-.04-.07-.09-.13-.13-.19l-.04-.06c-.07-.1-.14-.2-.2-.3l-.13-.2c-.11-.17-.2-.34-.28-.52-.11-.23-.2-.48-.27-.75l-.1-.4-.36.22s-.07-.08-.07-.17c0-.08.02-.17.04-.27.02-.12.04-.23.05-.34.02-.41-.14-.77-.32-1.12-.1-.19-.2-.38-.26-.58l-.04-.13s-.01-.06-.02-.1c0-.05.01-.13.04-.21.02-.05.05-.1.08-.15.04.03.07.06.1.08.04.04.07.07.08.09.03.05.05.13.07.23l.13.62c.02.11.07.2.18.28.09.06.18.06.22.06h.66l-.14-.41c-.11-.32-.21-.65-.3-.95l-.07-.28c-.06-.44-.08-.74-.07-.8.07-.92.17-1.82.31-2.67.05-.3.11-.58.27-.74.1-.1.25-.16.41-.23.38-.17.74-.23,1.14-.3l.17-.03c.12-.02.25-.03.37-.05l.24-.02c.52-.06,1.04-.09,1.59-.09.23,0,.46,0,.69.02.25,0,.49.05.75.1.18.03.36.07.54.09.06,0,.12.01.17.02.21.02.42.03.62.04h.04c.2,0,.4.02.59.04.19.08.36.17.52.29.25.18.42.37.51.58.09.2.11.43.13.69l.22,2.22v.16c-.01.15-.02.3-.02.45,0,.12,0,.25.02.37v.03c.01.1.03.21.05.32,0,.02.01.04.02.07.02.08.05.17.07.25,0,.03.02.06.03.09.02.06.05.12.08.19,0,.02.02.04.03.06,0,.02.01.03.02.05.05.08.08.17.12.26.04.09.07.18.1.27.05.12.1.25.15.37-.07.18-.11.37-.1.58,0,.11.02.22.04.33.02.1.03.2.03.29,0,.08-.05.15-.07.16l-.4-.3-.07.49-.02.05c-.14.45-.32.84-.56,1.19-.12.18-.24.36-.37.53l.04-.04ZM33.93,43.91s-.03-.05-.05-.07c-.83-1.16-2.12-1.7-3.38-2.23-.2-.09-.4-.17-.6-.26-1.51-.67-3.11-1.23-4.74-1.66-.07-.02-.16-.04-.26-.06-.43-.1-1.02-.25-1.33-.5l-.02-.02s-.08-.08-.11-.12c-.17-.24-.23-.72-.21-1.44.11-.15.22-.31.32-.47.24-.35.43-.73.57-1.16.39-.03.63-.41.64-.76,0-.15-.02-.3-.04-.42.04.04.08.08.13.12.33.27.72.42,1.11.42h.01c.12,0,.22-.02.33-.04.22-.05.42-.12.62-.2.25-.1.49-.19.72-.2h.05c.1,0,.2.03.3.05.04,0,.07.02.12.02h.07s.03.02.05.02c.2.03.43.04.63-.06.04-.02.08-.04.12-.07.1-.07.18-.16.24-.23.03-.04.06-.07.09-.1,0,0,.02-.02.02-.03h0c.22-.28.96-1.74,1.51-3.1.02-.03.03-.07.04-.1.05-.11.09-.21.12-.32.02-.06.05-.12.07-.18.05-.14.1-.27.14-.39.02-.07.04-.13.06-.2.03-.09.05-.18.08-.27.01-.05.03-.1.04-.14.01-.04.02-.08.03-.12v-.06c.34-1.5.33-2.92,0-4.17-.07-.3-.17-.6-.28-.88-.1-.23-.2-.43-.31-.63-.16-.3-.3-.54-.33-.82v-.04c-.02-.18,0-.37.08-.59.04-.12.08-.23.13-.35,0-.03.02-.05.03-.08.05-.12.1-.23.15-.34,0,0,.02.01.04.02.09.04.19.08.3.13.05.02.12.05.18.07.03,0,.06.02.09.03.06.02.12.05.19.07.1.04.2.07.31.11.04.01.07.03.11.04.27.1.58.2.94.32.1.03.17.05.2.07.12.05.25.08.37.11.03,0,.05.01.08.02.1.02.19.04.29.06.04,0,.08.01.12.02.09.01.17.02.26.03h.49c.15,0,.3,0,.45-.02h.07c.15-.01.29-.03.43-.05h.01c.15-.02.3-.05.44-.08h.02c.63-.13,1.16-.32,1.47-.44.11.05.27.11.47.19,1.11.45,3.43,1.33,4.72,1.65.3.07.61.16.91.26.07.02.13.05.2.07-.58.43-1.08.96-1.47,1.56-.4.61-.65,1.14-.78,1.65l-.02.05v.02c-.56,1.42-1.06,3.67-1.42,5.31l-.15.67c-.51,2.26-1.02,4.52-1.53,6.78v.05c-.56.12-1.18.29-1.79.54-1.06.43-1.9,1.07-2.44,1.84-.23.34-.41.71-.56,1.09l.04.02ZM35.99,50.43c-.47-2.62-.76-3.95-.97-4.42-.21-.48-.42-.96-.67-1.4.15-.5.35-.99.64-1.43.47-.67,1.21-1.23,2.16-1.62.47-.19.94-.33,1.38-.44l-1.01,4.46-.14.63c-.18.8-.37,1.62-.53,2.44v.03c-.04.15-.07.31-.1.47-.02.15-.05.3-.08.46-.01.09-.03.17-.04.26-.03.16-.06.32-.08.49v.1c-.02.08-.04.17-.05.24-.01.08-.02.16-.03.24-.01.09-.02.18-.04.27,0,.04,0,.08-.01.12-.03.23-.05.45-.07.68,0,.12-.02.25-.02.37-.12-.67-.23-1.33-.35-1.96h.02ZM42.74,42.88v.1l-.02.11.02.02c-.01.28-.02.56-.05.84-.06.94-.16,1.89-.25,2.81-.09.87-.18,1.77-.24,2.66-.02.3-.04.6-.05.89-.01.25-.02.51-.02.77v1.86c0,.16,0,.32.01.49v.17c.02.42.04.85.06,1.32,0,.06,0,.12.01.17.01.23.03.47.05.72.02.23.03.47.05.7.02.22.04.44.05.67,0,.09.03.23.06.39.02.09.04.22.06.36.02.17.03.33.01.42h-.03c-.07,0-.17.01-.28.05-.17.06-.32.13-.46.21-.17.09-.32.17-.49.2-.22.05-.45.06-.69.05h-.1c-.2-.01-.41-.03-.62-.05l-1.46-.16c-.25-.02-.5-.05-.76-.08-.05,0-.1-.01-.14-.02h-.01c-.16-.02-.31-.04-.44-.07-.02,0-.03,0-.04-.01-.06-.02-.11-.03-.17-.06-.02,0-.03,0-.05-.02-.01,0-.02-.01-.04-.02-.06-.03-.12-.07-.18-.11-.04-.03-.07-.07-.1-.11-.05-.07-.07-.17-.06-.29,0-.09.02-.19.07-.31.05-.12.08-.24.12-.35.08-.25.15-.48.2-.73v-.07c.02-.11.04-.22.05-.33.02-.22.04-.43.05-.65v-.14c.02-.45.03-.91.04-1.35,0-.38.01-.76.03-1.14,0-.27.03-.54.05-.81v-.06c.02-.22.04-.44.07-.67,0-.08.02-.17.03-.25.06-.45.13-.9.21-1.35,0-.04.01-.07.02-.1.02-.12.05-.25.07-.37.02-.14.05-.28.08-.42v-.02c.06-.26.11-.52.17-.79.12-.54.24-1.08.36-1.61l.34-1.5.87-3.84.06-.25c.52-2.34,1.06-4.68,1.58-7.02l.15-.67c.12-.56.26-1.18.41-1.82v.34c0,.12,0,.25.02.37v.2c.01.13.02.26.04.39,0,.05.01.11.02.17.02.19.05.37.09.56l.04.2c.05.19.1.38.15.57.02.06.05.12.06.17.05.13.09.26.14.38.03.07.07.15.1.22.05.11.09.22.15.32.04.08.08.16.13.24.05.09.09.17.14.26v.05l.02.03c0,.08,0,.15-.01.24v.28c-.04.72-.08,1.46.04,2.17.13.82.19,1.67.21,2.45.02.76,0,1.45-.01,2.02h.03ZM42.38,33.43c-.01.12-.02.23-.03.35-.05-.15-.09-.3-.12-.44l-.04-.19c-.29-1.48-.13-3.04.06-4.37l.13-.82c0-.07.02-.14.04-.2v-.03c.12-.45.35-.92.71-1.48.41-.63.96-1.17,1.6-1.59.22-.15.46-.27.7-.38.34-.16.7-.29,1.07-.37.71-.17,1.47-.19,2.21-.07.32.05.63.12.94.22.33.1.65.23.96.39.8.41,1.36.92,1.66,1.53.33.65.37,1.43.37,2.18.01,1.19-.05,2.4-.17,3.59-.02.21-.04.42-.06.64-.07.84-.14,1.7-.43,2.39-.09.21-.18.41-.29.61,0-.01,0-.02.01-.04.05-.14.1-.27.14-.42,0-.02.01-.04.02-.07.04-.14.06-.29.08-.43.09-.88-.19-1.7-.46-2.5-.11-.33-.22-.67-.31-1.01-.05-.22-.1-.45-.15-.68-.14-.72-.29-1.47-.77-2.08-.49-.62-1.28-1.02-2.23-1.14-.06,0-.12-.01-.19-.02-.14,0-.27-.01-.41-.02h-.22c-.11,0-.22,0-.32.01-.05,0-.1,0-.15.01-.06,0-.12,0-.18.02-.1,0-.2.02-.3.03-.1.01-.21.02-.31.04-.63.1-.85.44-1.11.83l-.11.16c-.7,1.02-1.41,2.14-1.88,3.4-.25.65-.41,1.31-.48,1.97v-.02ZM43.01,34.98c-.01-.1-.02-.19-.02-.29,0-.06-.01-.12-.02-.19v-.49c0-.17.02-.33.04-.5.07-.61.22-1.22.45-1.82.45-1.2,1.14-2.28,1.81-3.26l.12-.17c.23-.35.33-.5.69-.56.1-.01.2-.03.31-.04.2-.02.41-.05.62-.06h.12c.21-.01.42-.01.63,0,.07,0,.15,0,.22.02.46.05,1.3.25,1.81.9.39.49.52,1.14.65,1.82.05.24.09.48.15.71.09.36.21.71.32,1.05.03.1.07.2.1.29.22.67.4,1.31.33,1.95-.03.3-.12.61-.25.9-.32.71-.89,1.33-1.46,1.9-.5.5-1.05,1.02-1.68,1.36-.03.02-.05.03-.08.05-.16.08-.32.15-.5.22h-.02c-.38.12-.95.22-1.52.02-.46-.16-.84-.48-1.12-.74-.61-.58-1.06-1.2-1.33-1.84v-.04c-.07-.13-.15-.4-.2-.57l-.02-.06v-.13l-.04-.03c-.02-.07-.03-.15-.05-.23,0-.06-.02-.12-.03-.19l-.03.02ZM53.72,40.43s-.02.02-.02.03c-.11.19-.25.38-.37.56-.08.12-.17.24-.24.35-.22.33-.42.69-.6,1.04-.02.04-.05.08-.07.12-.25.47-.5.91-.83,1.28-.08.09-.15.18-.25.26-.08.08-.18.15-.27.22-.62.44-1.47.67-2.4.64-.09,0-.19,0-.28-.01-.66-.05-1.31-.22-1.97-.44-.02,0-.05-.02-.07-.02-.11-.04-.22-.07-.33-.12-.01,0-.02,0-.03-.01-.26-.1-.52-.2-.79-.3-.17-.06-.33-.12-.48-.19-.03-.01-.07-.03-.1-.05-.11-.05-.22-.1-.32-.15-.1-.05-.19-.11-.28-.17-.04-.02-.09-.05-.12-.07-.12-.08-.23-.17-.33-.27,0,0-.02-.02-.03-.02h0c-.05-.06-.1-.11-.14-.16,0,0-.01-.02-.02-.02v-2.11c0-.15,0-.29-.02-.44v-.17c0-.15-.02-.31-.03-.47,0-.05,0-.11-.01-.16-.02-.19-.03-.38-.05-.57v-.07c-.02-.21-.05-.42-.09-.64-.03-.19-.05-.38-.06-.57v-.67c.08.14.17.27.27.41.02.04.05.07.08.11.09.12.19.24.29.36.04.04.07.08.11.13.13.15.27.29.42.44.33.3.77.68,1.34.88.14.05.29.08.44.11h.13c.1.01.21.02.31.02h.02c.12,0,.23-.02.35-.03.05,0,.1,0,.15-.02.11-.02.23-.04.34-.07.06-.01.12-.03.18-.05,0,0,.03,0,.05-.02.01,0,.03,0,.05-.01.02,0,.05-.01.07-.02.03,0,.06-.02.09-.03.02,0,.05-.02.08-.03.03-.01.06-.02.09-.03h.01s.06-.02.09-.04c.04-.01.07-.03.11-.05.03-.01.07-.03.1-.04.04-.02.08-.04.12-.05.04-.02.07-.03.11-.05.04-.02.08-.04.12-.06.04-.02.07-.04.12-.05.04-.02.08-.04.12-.06.04-.02.08-.04.12-.06.04-.02.08-.04.13-.06.04-.02.08-.05.12-.07.04-.02.08-.05.12-.07.04-.02.08-.05.12-.07.04-.02.08-.04.12-.07.04-.02.08-.05.12-.07.04-.02.07-.05.11-.07.04-.02.08-.05.12-.07.04-.02.07-.05.1-.07.04-.02.08-.05.12-.07.03-.02.07-.05.1-.07.03-.02.07-.05.1-.07s.07-.05.1-.07c.02-.02.05-.04.08-.06.03-.03.07-.05.1-.08.02-.02.04-.03.06-.05.05-.04.1-.08.13-.12.16-.17.31-.34.46-.51.04-.04.07-.08.1-.13.14-.17.28-.35.4-.54,0,.02.02.03.03.05.09.13.18.26.27.38l1.31,1.7c.24.31.48.63.53.98.04.29-.04.58-.25.96h0ZM69.18,41.5c-.8.56-1.8.81-2.86,1.08-1.73.44-3.52.89-4.4,2.77-.58,1.24-1.08,2.54-1.49,3.86-.11-1.9-.27-3.28-.49-4.13-.19-.76-.43-1.56-.9-2.25-.53-.77-1.37-1.41-2.44-1.84-.79-.32-1.38-.47-2.15-.62.12-.28.2-.61.14-.98-.07-.51-.39-.93-.65-1.26l-1.3-1.7c-.09-.12-.17-.24-.27-.37-.06-.09-.12-.17-.19-.26.15-.25.28-.51.39-.78.33-.78.41-1.74.48-2.59.02-.22.03-.42.05-.63.13-1.21.19-2.44.17-3.66,0-.82-.05-1.68-.44-2.46-.36-.72-1.01-1.32-1.93-1.8-.07-.04-.15-.07-.22-.1l.23-.05c1.69-.38,3.29-1.07,4.75-2.03.17-.12.36-.25.54-.4.04.03.08.06.12.09.05.04.1.07.15.11.1.08.2.15.31.22.04.02.07.05.1.07.12.08.25.15.38.22.02.01.05.03.07.04.12.07.25.12.38.18.03.02.06.03.1.05.03.01.07.03.1.04.02.01.05.02.05.04,0,0,.01.02.02.03,0,.01,0,.02.01.04,0,.02.02.05.02.09.08.28.17.56.28.83.02.04.03.08.05.12.02.04.03.07.05.11.25.58.57,1.12.95,1.62.07.1.16.2.24.3.02.03.05.06.07.09.11.13.22.25.34.37l.3.3.19-.35c.3-.55.59-1.14.72-1.8.02-.1.04-.21.05-.31.06-.44.04-.88-.06-1.27.09-.01.17-.02.26-.04h.06c.07-.01.13-.03.2-.05.04,0,.08-.02.12-.03.06-.02.12-.04.18-.06.05-.02.1-.03.15-.05.05-.02.11-.04.16-.07.05-.02.1-.04.15-.06.05-.02.1-.05.15-.08.05-.02.1-.05.15-.08.05-.03.1-.06.15-.09.05-.03.09-.06.14-.09s.1-.07.14-.1.08-.07.12-.1c.05-.04.1-.08.14-.12l.02-.02c.1.07.2.14.29.2,1.46.96,3.05,1.64,4.75,2.03l.27.06c.36.08.71.15,1.02.28-.47.44-.76,1.03-.96,1.51-.62,1.47-.84,2.87-.78,4.84.01.42.04.84.22,1.22.16.33.41.59.75.8.02.28.03.57.02.88,0,.17-.02.37.03.57.07.27.24.48.46.58.04.98.14,1.93.64,2.73.15.24.31.45.49.64.15,1.03-.13,2.12-.76,2.94-.22.28-.47.52-.78.73h.04ZM77.17,42.39c-.58.49-1.18.99-1.68,1.43-.09.07-.17.15-.26.22-.25.19-.49.34-.74.32-.23-.01-.47-.16-.67-.27-1.31-.79-2.61-1.57-3.91-2.35.2-.17.39-.37.55-.58.59-.77.92-1.75.93-2.73.02.01.05.02.06.04.1.07.21.12.32.18.05.02.1.05.15.08.16.08.33.15.52.22.14.05.29.1.44.13.05.01.09.02.13.03.11.02.21.05.32.06.05,0,.11.01.16.02.1.01.2.02.3.03h.45c.09,0,.18,0,.27-.01.08,0,.16,0,.23-.02.1-.01.2-.02.29-.04.07-.01.15-.02.22-.04.11-.02.22-.05.33-.07.06-.02.12-.03.18-.05.17-.05.34-.11.51-.17.2-.08.39-.17.57-.25.06-.03.11-.06.17-.09.12-.06.23-.12.34-.18.02-.01.06-.03.08-.04-.03,1.04.3,2.08.92,2.89.04.05.08.1.12.15-.41.35-.86.73-1.31,1.1h.01Z"/>
</svg>