<?xml version="1.0" encoding="UTF-8"?>
<svg id="Layer_1" xmlns="http://www.w3.org/2000/svg" version="1.1" viewBox="0 0 432 288">
  <!-- Generator: Adobe Illustrator 30.4.0, SVG Export Plug-In . SVG Version: 2.1.4 Build 226)  -->
  <path d="M153.72,69.05c-.37-.81-.62-1.57-.68-2.23-.06-.59.04-1.09.32-1.43.13-.16.32-.31.57-.41,2.1-.96,5.88.51,9.62,2.91,3.93,2.51,7.76,6.01,9.62,8.82.21.4.44.79.68,1.19-1.56.26-2.88,1.07-3.72,2.37-.12.18-.22.37-.32.57-.35.74-.53,1.53-.56,2.35l-.9-.57c-4.73-3.03-5.1-3.26-9.97-7.34-1.4-1.16-3.54-3.79-4.66-6.22v-.02ZM198.29,103.31c2.28.97,4.18.91,5.07-1.22,1.78-4.16-13.16-12.04-18.23-14.72l-.54-.29c.01.94-.18,1.87-.57,2.71-.1.21-.21.4-.32.57-.26.4-.56.75-.91,1.06.96.63,2.38,1.9,4.07,3.41,3.37,2.98,7.84,6.95,11.42,8.48h.01ZM182.85,84.63c-.66-1.65-1.93-3.21-3.63-4.29-.34-.22-.66-.4-1-.56-1.44-.69-2.9-.91-4.16-.69-1.22.21-2.25.82-2.9,1.82-.09.15-.18.29-.25.44-.65,1.35-.57,3.01.07,4.62.66,1.65,1.93,3.21,3.63,4.29.34.22.66.4,1,.56,1.44.69,2.9.91,4.16.69,1.22-.21,2.25-.82,2.9-1.82.09-.15.18-.29.25-.44.65-1.35.57-3.01-.07-4.62ZM173.73,91.99c.29-.12.56-.24.81-.34-.19-.1-.4-.22-.59-.35-1.91-1.24-3.34-3-4.1-4.87-.22-.56-.4-1.13-.5-1.71-2.97-.87-7.84-.78-11.91.16-1.9.44-3.6,1.06-4.84,1.87-1.15.74-1.87,1.6-1.93,2.59-.03.49.1,1.01.41,1.59,4.62,8.54,16.98,3.4,22.63,1.04h.01ZM175,77.43c.06.12.07.24.04.35,1.19,0,2.46.29,3.69.9.38.19.76.4,1.13.63.26.18.53.35.78.54,1.12-1.79,2-4.9,2.41-8.07.43-3.26.34-6.59-.53-8.59-1.22-2.81-3.18-4.16-5.1-4.29-.99-.06-1.97.19-2.85.75-.9.56-1.68,1.44-2.23,2.57-1.46,2.97-1.43,7.75,1.9,13.87.31.47.56.91.76,1.34h0ZM123.36,101.57c-.04-.1-.09-.22-.12-.32-.18-.53-.26-1.06-.25-1.57l-.24.04c-1.68.37-4.9,1.07-7.63,2.09-2.75,1.01-5.04,2.31-4.51,3.73.85,2.31,3.1,2.19,5.54,1.28,1.87-.69,3.82-1.82,5.43-2.75.97-.56,1.82-1.04,2.47-1.34-.26-.35-.5-.75-.68-1.18h-.02ZM122.86,116.72c.37.4.82.66,1.37.74.65.1,1.21.03,1.69-.18.82-.34,1.47-1.06,1.96-2.01.51-1,.87-2.23,1.06-3.53.38-2.53.19-5.22-.34-6.76-.82,0-1.65-.16-2.38-.5-.43-.19-.82-.43-1.19-.71-1.78,1.73-2.87,4.34-3.23,6.84-.19,1.28-.19,2.54,0,3.62.18,1.04.54,1.91,1.07,2.5h0ZM130.74,95.35c1.16.57,2.13,1.54,2.65,2.79.04.12.09.22.12.32.15.44.24.88.25,1.32l.44-.15c3.18-1.06,3.43-1.13,6.72-2.87.69-.37,1.68-1.21,2.44-2.19.43-.54.76-1.13.93-1.69.15-.49.16-.96-.04-1.34-.1-.18-.25-.35-.46-.51-.1-.07-.22-.15-.32-.22-1.56-.87-4.13-.51-6.6.4-2.38.88-4.63,2.28-5.79,3.63-.12.16-.22.34-.35.5h.03ZM183.97,84.18c.18.44.32.9.43,1.34,4.43,1.37,10.34,1.97,14.79,1.37,1.78-.24,3.31-.68,4.38-1.32.97-.59,1.56-1.37,1.57-2.34.01-.68-.22-1.46-.75-2.37-.22-.37-.46-.72-.69-1.06-2.43-3.26-5.97-4.16-9.6-3.82-3.73.34-7.59,1.97-10.5,3.66-.68.4-1.29.79-1.85,1.18.99,1,1.75,2.16,2.23,3.35h-.01ZM228.34,104.19c.93-.38,1.62-1.06,2-1.88.38-.81.46-1.76.15-2.69-.03-.09-.06-.18-.09-.25-.43-1.03-1.24-1.81-2.22-2.25-.99-.44-2.13-.53-3.22-.18-.09.03-.19.06-.26.1-.15.06-.29.13-.44.21h-.03c-.69.41-1.21.99-1.53,1.66-.38.81-.46,1.76-.15,2.69.03.09.06.18.09.25.43,1.03,1.24,1.81,2.22,2.25.99.44,2.13.53,3.22.18.09-.03.19-.06.26-.1h0ZM212.31,97.18c2.81,1.13,6.31,1.82,9.03,1.85.06-.21.15-.41.24-.62.32-.68.79-1.28,1.4-1.76-1.01-1.01-2.32-2.15-3.76-3.19-1.84-1.32-3.9-2.48-5.81-2.98-1.81-.47-3.48-.34-4.72.82-.21.19-.4.41-.57.66-.24.32-.38.65-.44.96-.13.75.26,1.5,1.01,2.19.85.78,2.13,1.5,3.6,2.09h.03ZM277.36,81.11c-.34-.22-.66-.4-1-.56-1.44-.69-2.9-.91-4.16-.69-1.22.21-2.25.82-2.9,1.82-.09.15-.18.29-.25.44-.65,1.35-.57,3.01.07,4.62.66,1.65,1.93,3.21,3.63,4.29.34.22.66.4,1,.56,1.44.69,2.9.91,4.16.69,1.22-.21,2.25-.82,2.9-1.82.09-.15.18-.29.25-.44.65-1.35.57-3.01-.07-4.62-.5-1.25-1.35-2.44-2.47-3.43-.35-.31-.75-.6-1.16-.87h0ZM273.14,78.19c.06.12.07.24.04.35,1.19,0,2.46.29,3.69.9.38.19.76.4,1.13.63.26.18.53.35.78.54,1.12-1.79,2-4.9,2.41-8.07.43-3.26.34-6.59-.53-8.59-1.22-2.81-3.18-4.16-5.1-4.29-.99-.06-1.97.19-2.85.75-.9.56-1.68,1.44-2.23,2.57-1.46,2.97-1.43,7.75,1.9,13.87.31.47.56.91.76,1.34h0ZM228.88,96.1c1.16.57,2.13,1.54,2.65,2.79.04.12.09.22.12.32.15.44.24.88.25,1.32l.44-.15c3.18-1.06,3.43-1.13,6.73-2.87.69-.37,1.68-1.21,2.44-2.19.43-.54.76-1.13.93-1.69.15-.49.16-.96-.04-1.34-.1-.19-.25-.35-.46-.51-.1-.07-.22-.15-.34-.22-1.56-.87-4.13-.51-6.6.4-2.38.88-4.65,2.28-5.79,3.63-.12.16-.22.34-.35.5h.03ZM256.52,76.03c4.87,4.07,5.23,4.29,9.97,7.34l.9.57c.03-.82.22-1.62.56-2.35.1-.21.21-.4.32-.57.84-1.31,2.16-2.1,3.72-2.37-.24-.4-.47-.79-.68-1.19-1.85-2.79-5.69-6.31-9.62-8.82-3.73-2.4-7.51-3.88-9.62-2.91-.24.12-.43.25-.57.41-.29.35-.38.85-.32,1.43.06.68.31,1.44.68,2.23,1.12,2.43,3.26,5.06,4.66,6.22v.02ZM221,117.47c.37.4.82.66,1.37.74.65.1,1.21.03,1.69-.18.82-.34,1.47-1.06,1.96-2.01.51-1,.87-2.23,1.06-3.53.38-2.53.19-5.22-.34-6.76-.82,0-1.65-.16-2.38-.5-.43-.19-.82-.43-1.19-.71-1.78,1.73-2.87,4.34-3.23,6.84-.19,1.28-.19,2.54,0,3.62.18,1.04.54,1.91,1.07,2.5h0ZM130.19,103.43c.93-.38,1.62-1.06,2-1.88.38-.81.46-1.76.15-2.69-.03-.09-.06-.18-.09-.25-.43-1.03-1.24-1.81-2.22-2.25-.99-.44-2.13-.53-3.22-.18-.09.03-.18.06-.26.1-.15.06-.29.13-.44.21h-.03c-.69.41-1.21.99-1.53,1.66-.38.81-.46,1.76-.15,2.69.03.07.06.16.09.25.43,1.03,1.24,1.81,2.22,2.25s2.13.53,3.22.18c.09-.03.19-.06.26-.1h0ZM224.18,95.94h.04c.12-.06.24-.1.35-.15,1.03-.34,2.12-.37,3.12-.12.1-.19.24-.38.4-.59l.13-.16c2.35-3.56,2.25-6.9,1.12-9.17-.44-.88-1.03-1.6-1.68-2.12-.63-.5-1.32-.79-1.98-.85-1.01-.07-2.01.44-2.68,1.73-.57,1.13-.65,3.29-.38,5.56.26,2.19.82,4.43,1.56,5.88h0ZM221.5,102.34c-.04-.1-.09-.22-.12-.32-.18-.53-.26-1.06-.25-1.57l-.24.04c-1.68.37-4.9,1.07-7.63,2.09-2.75,1.01-5.04,2.31-4.51,3.73.85,2.31,3.1,2.19,5.54,1.28,1.87-.69,3.82-1.82,5.43-2.75.97-.56,1.82-1.04,2.47-1.34-.26-.35-.5-.75-.68-1.18h-.02ZM28.76,94.47c-.47-.37-.88-.79-1.24-1.31-.07-.1-.15-.22-.22-.34-.53-.85-.82-1.81-.93-2.79l-.56.31c-4.7,2.68-18.54,10.53-16.22,14.67,1.38,2.47,3.69,2.23,6.22.81,3.15-1.76,6.65-5.28,9.35-8,1.47-1.49,2.72-2.73,3.59-3.38v.03ZM29.89,95.18c-3,4.48-3.94,10.72-3.19,15.35.21,1.29.54,2.47,1.01,3.43.44.91,1,1.63,1.65,2.07.62.41,1.32.59,2.15.46.75-.12,1.41-.37,2-.72,1.9-1.16,2.98-3.5,3.5-6.22.53-2.81.44-6,0-8.78-.06-.4-.13-.76-.21-1.15,0-.01-.01-.03-.01-.06-.35-1.72-.84-3.19-1.38-4.19-1.19.41-2.43.53-3.57.37-.68-.1-1.32-.29-1.93-.59v.03ZM35.86,80.87c1.71.25,3.23,1.13,4.25,2.59.07.1.15.22.22.34.47.75.75,1.59.88,2.44l.85-.6c4.31-3.01,4.65-3.25,8.98-7.32,1.04-.99,2.5-3.01,3.4-5.09.43-.99.72-1.98.78-2.85.06-.78-.09-1.46-.51-1.91-.18-.19-.4-.34-.68-.47-.07-.03-.16-.06-.25-.09-2.44-.82-6.25.94-9.78,3.56-3.28,2.46-6.25,5.63-7.62,8.2-.16.4-.34.81-.53,1.22h0ZM36.82,93.28c1.53-1.07,2.57-2.62,3.01-4.23.44-1.6.28-3.26-.54-4.63l-.18-.26c-.82-1.18-2.07-1.88-3.47-2.09-1.43-.21-3,.12-4.43,1-.13.09-.26.18-.41.26-.37.26-.72.54-1.03.87h-.01c-.97.99-1.65,2.16-1.97,3.38-.44,1.6-.28,3.26.54,4.63.06.09.12.18.18.26.82,1.18,2.07,1.88,3.47,2.09,1.43.21,3-.12,4.43-.99.13-.09.26-.18.41-.26v-.03ZM29.41,82.87c.22-.19.46-.37.71-.54.15-.1.31-.21.47-.31,1.31-.81,2.73-1.21,4.09-1.24-.01-.09-.01-.19.03-.29.07-.21.15-.41.25-.63.1-.24.22-.49.35-.74,2.59-6.32,1.84-11.22-.18-14.17-.76-1.13-1.72-1.96-2.73-2.47-.99-.5-2.03-.69-3.01-.56-1.73.25-3.32,1.59-4.1,4.19-.6,2-.25,5.32.62,8.59.85,3.22,2.18,6.35,3.54,8.16h-.03ZM302.53,81.61c-.22-.38-.46-.72-.69-1.06-2.43-3.26-5.97-4.16-9.6-3.82-3.73.34-7.59,1.97-10.5,3.66-.68.4-1.29.79-1.85,1.18.99,1,1.75,2.16,2.23,3.35.18.44.32.9.43,1.34,4.43,1.37,10.34,1.97,14.79,1.37,1.78-.24,3.31-.68,4.38-1.32.97-.59,1.56-1.37,1.57-2.34.01-.68-.22-1.46-.75-2.37h-.01ZM41.28,87.71c-.03.56-.12,1.1-.26,1.66-.51,1.88-1.72,3.68-3.48,4.93-.15.1-.31.21-.47.31h-.03c.29.13.6.25.93.38,5.94,2.34,18.98,7.48,22.44-.99.21-.5.26-.96.22-1.38-.13-1.15-1.09-2.15-2.54-2.96-1.56-.88-3.63-1.53-5.87-1.96-3.94-.75-8.28-.76-10.91.01h-.01ZM283.27,88.13l-.54-.29c.01.94-.18,1.87-.57,2.71-.1.21-.21.4-.32.57-.26.4-.56.75-.91,1.06.96.63,2.38,1.9,4.07,3.41,3.37,2.98,7.84,6.95,11.42,8.48,2.28.97,4.18.91,5.09-1.22,1.78-4.16-13.16-12.04-18.23-14.72h0ZM26.38,88.55c.04-.43.12-.87.24-1.29.32-1.21.94-2.37,1.79-3.38-1.26-.81-2.82-1.68-4.53-2.44-3.03-1.37-6.53-2.47-9.7-2.53-3.09-.06-5.88.87-7.66,3.5-.28.43-.54.88-.76,1.38-.37.81-.5,1.51-.46,2.13.09,1.12.84,1.98,2.01,2.63,1.29.71,3.06,1.16,5.09,1.38,4.43.49,9.92-.12,13.98-1.41v.03ZM88.94,100.59c.13.22.25.46.35.68,2.79-.03,6.31-.75,9.01-1.93,1.28-.56,2.37-1.22,3.07-1.94.62-.63.93-1.32.78-2.01-.07-.37-.28-.75-.62-1.15-.24-.28-.49-.51-.74-.72-1.51-1.24-3.35-1.28-5.2-.69-1.96.62-3.94,1.96-5.63,3.4-1.03.88-1.94,1.79-2.66,2.63.68.47,1.24,1.07,1.65,1.75h-.01ZM102.82,108.62c.56-2.37-5.98-4.26-10.32-5.29-1.1-.26-2.01-.46-2.68-.6l-.16-.03c.07.59.03,1.19-.13,1.79l-.06.19c-.12.37-.28.72-.49,1.04.69.28,1.63.78,2.72,1.37,2.15,1.15,4.88,2.62,7.17,3.16,1.93.46,3.5.22,3.94-1.62h0ZM87.01,107.45c-.69.34-1.49.51-2.29.51-.21,1.06-.19,2.66.07,4.37.26,1.76.79,3.63,1.6,5.15.76,1.44,1.78,2.54,3.03,2.9.44.12.91.15,1.43.07.5-.07.88-.31,1.18-.68.35-.44.59-1.04.69-1.79.12-.78.09-1.69-.06-2.66-.46-2.97-2.07-6.43-4.57-8.57-.32.28-.69.51-1.07.71h0ZM114.17,96.43c2.81,1.13,6.31,1.82,9.03,1.85.06-.21.15-.41.24-.62.32-.68.79-1.28,1.4-1.76-1.01-1.01-2.32-2.15-3.76-3.19-1.84-1.32-3.9-2.48-5.81-2.98-1.81-.47-3.48-.34-4.72.82-.21.19-.4.41-.57.66-.24.32-.38.65-.44.96-.13.75.26,1.5,1.01,2.19.85.78,2.13,1.5,3.6,2.09h.03ZM67.37,95.68c.21.54.6,1.13,1.07,1.68.93,1.09,2.15,2.03,2.94,2.41,3.53,1.73,3.79,1.81,7.12,2.87l.4.13c-.03-.51.01-1.03.16-1.53l.06-.21c.37-1.16,1.18-2.09,2.21-2.65-.15-.16-.28-.34-.41-.5-1.34-1.37-3.81-2.79-6.35-3.68-2.66-.94-5.35-1.28-6.73-.32l-.18.13c-.15.13-.25.26-.32.4-.18.35-.13.79.04,1.26h0ZM126.03,95.19h.04c.1-.06.22-.1.35-.15,1.03-.34,2.12-.37,3.12-.12.1-.19.24-.38.4-.59l.13-.16c2.35-3.56,2.25-6.9,1.12-9.17-.44-.88-1.03-1.6-1.68-2.12-.63-.5-1.32-.79-1.98-.85-1.01-.07-2.01.44-2.68,1.73-.57,1.13-.65,3.29-.38,5.56.26,2.19.82,4.43,1.56,5.88h0ZM82.11,97.43c.13.15.25.31.35.46.01.01.01.03.03.04.91-.24,1.93-.24,2.94.04l.22.06c.13.04.26.09.38.13.51-1.44.78-3.63.75-5.78-.03-2.26-.4-4.44-1.13-5.59-.91-1.41-2.07-1.93-3.15-1.78-.63.09-1.25.41-1.78.9-.54.51-1.01,1.24-1.31,2.09-.78,2.28-.4,5.57,2.4,9.09.1.1.19.21.28.31v.03ZM79.64,105.13c-.18-.29-.32-.59-.44-.91-1.78.09-4.38.93-6.68,2.15-1.4.74-2.68,1.62-3.54,2.51-.78.81-1.22,1.63-1.09,2.35.04.24.16.49.34.72,3.63,4.62,11.06-1.34,14.42-4.06l.25-.21h-.01c-1.43-.46-2.57-1.4-3.28-2.56h.03ZM86.07,99.51c-.25-.13-.51-.24-.78-.32l-.18-.04c-1.07-.29-2.15-.19-3.03.22-.85.41-1.53,1.12-1.82,2.04l-.04.15c-.26,1-.07,2.04.47,2.94.56.91,1.47,1.66,2.6,2.03l.18.06c1.07.29,2.15.19,3.03-.22.85-.41,1.53-1.12,1.82-2.04l.04-.15c.26-1,.07-2.04-.47-2.94-.41-.69-1.04-1.29-1.81-1.69h-.01v-.03ZM293.57,203.41c-12.87,1.91-24.16,1.81-34.7.94,7.01-1.69,12.92-10.94,17.58-18.26,2.43-3.81,4.53-7.12,6.43-8.69-6.85-.53-9.88,1.71-13.22,4.18-.84.62-1.69,1.25-2.6,1.85-.28.19-.66.1-.84-.18-.15-.22-.13-.5.01-.71,4.48-6.54,5.88-12.84,7.28-19.08,2.09-9.32,4.15-18.57,16.09-28.58-13.47,2.82-22.88,21.32-29.11,35.64.26-4.97.46-10.19.62-15.63.76-23.94,1.62-51.06,12.78-60.53.18-.15.22-.35.28-.56-.15.51-.29,1.07-.4,1.72-.44,2.84-.37,6.78.53,10.34.87,3.48,2.5,6.57,5.15,7.85.53.25,1.12.44,1.73.54.63.1,1.18.03,1.63-.19.91-.44,1.56-1.46,1.93-2.87.4-1.5.49-3.41.25-5.5-.47-4.21-2.21-9.07-5.18-12.76-.53.26-1.1.46-1.72.56-1.16.19-2.44.09-3.73-.34-.03.09-.06.21-.09.29,0-.28-.06-.57-.25-.79-.35-.41-.9-.44-1.37-.25-.19-.1-.38-.22-.57-.34-1.91-1.24-3.34-3-4.1-4.87-.22-.56-.4-1.13-.5-1.71-2.97-.87-7.84-.78-11.91.16-1.9.44-3.6,1.06-4.84,1.87-1.15.74-1.87,1.6-1.93,2.59-.03.49.1,1.01.41,1.59,4.62,8.54,16.98,3.4,22.63,1.04.13-.06.25-.1.37-.15-11.91,10.22-12.75,36.65-13.56,62.24-.25,8.06-.51,15.66-1.1,22.54-.38.93-.76,1.82-1.21,2.84-.13.31-.49.46-.79.32-.25-.1-.38-.35-.37-.6.65-8.25.87-15.66.46-22.42h0c-.16-2.62-.41-5.12-.78-7.54-1.15-7.73-3.4-14.64-7.12-21.11,1.5,13.28.4,20.76-.71,27.6-2.91-18.51-8.63-39.13-17.6-50.34.76.54,1.6,1.15,2.56,1.78,4.03,2.65,9.42,5.37,11.73,1.87.16-.25.24-.5.24-.76,0-.51-.29-1.09-.79-1.68-.54-.65-1.34-1.29-2.26-1.9-2.82-1.85-6.81-3.31-9.2-3.44-.07.29-.18.57-.31.84-.51,1.09-1.43,1.98-2.65,2.48-.06.03-.12.04-.18.07-.4-.15-.84-.18-1.18.12-.51.43-.59,1.19-.16,1.71,10.32,12.51,16.29,38.14,18.6,58.37-.03.34-.07.65-.1.99v.04c-.24,3.62-.16,7.68.51,12.79.04.34-.19.63-.53.68-.28.03-.53-.12-.63-.37-.5-1.16-1.03-2.44-1.59-3.75-4.65-11.14-10.42-25.02-26.05-33.8,6.59,6.97,10.1,15.5,13.47,23.7,2.38,5.78,4.68,11.39,7.94,16.1.19.28.12.66-.16.85-.24.16-.54.13-.75-.04-3.96-3.44-7.32-6.09-10.85-7.85-1.94-.97-3.94-1.69-6.12-2.13,4.66,2.68,7.73,8,10.95,13.56,3.9,6.73,8.03,13.84,15.47,16.76-3.4-.44-6.76-.91-10.07-1.38-15.72-2.26-30.55-4.4-47.17-1.35-10.91,2-20.19,2.79-28.35,2.88,6.51-2.35,12.04-11.01,16.45-17.94,2.43-3.81,4.53-7.12,6.43-8.69-6.85-.53-9.88,1.71-13.22,4.18-.84.62-1.69,1.25-2.6,1.85-.28.19-.66.1-.84-.18-.15-.22-.13-.5.03-.71,4.78-6.98,5.35-11.17,5.91-15.26.76-5.59,1.5-11.03,12.13-22.66-12.72,1.88-18.78,13.38-23.54,24.85.24-4.63.4-9.48.56-14.51.75-23.86,1.62-50.89,12.69-60.45-.07.32-.15.65-.21,1-.44,2.84-.37,6.78.53,10.34.87,3.48,2.5,6.57,5.15,7.85.53.25,1.12.44,1.73.54.63.1,1.18.03,1.63-.19.91-.44,1.56-1.46,1.93-2.87.4-1.5.49-3.41.25-5.5-.47-4.21-2.21-9.07-5.18-12.76-.53.26-1.1.46-1.72.56-1.16.19-2.44.09-3.73-.34,0,.01,0,.03-.01.03-.04-.16-.03-.34-.15-.47-.44-.51-1.21-.57-1.72-.15-11.98,10.17-12.82,36.67-13.63,62.31-.25,7.76-.5,15.11-1.04,21.8-.49,1.21-.97,2.4-1.44,3.5-.13.31-.49.46-.79.32-.25-.1-.38-.35-.37-.6.69-8.79.9-16.61.37-23.73h0c-.16-2.15-.38-4.22-.69-6.23-1.15-7.73-3.4-14.64-7.12-21.11,1.46,12.92.46,20.35-.62,27.05-2.93-18.28-8.59-38.45-17.39-49.56.69.5,1.43,1.01,2.26,1.57,4.03,2.65,9.42,5.37,11.73,1.87.16-.25.24-.5.24-.76,0-.51-.29-1.09-.79-1.68-.54-.65-1.34-1.29-2.26-1.9-2.82-1.85-6.81-3.31-9.2-3.44-.07.29-.18.57-.31.84-.51,1.09-1.43,1.98-2.65,2.48-.04.01-.09.03-.15.06-.35-.09-.72-.06-1.03.19-.51.43-.59,1.19-.16,1.71,10.17,12.34,16.11,37.4,18.5,57.49-.06.6-.15,1.18-.19,1.79v.04c-.24,3.62-.16,7.68.51,12.79.04.34-.19.63-.53.68-.28.03-.53-.12-.63-.37-.5-1.16-1.03-2.44-1.59-3.75-4.65-11.14-10.42-25.02-26.05-33.8,6.59,6.97,10.1,15.5,13.47,23.7,2.38,5.78,4.68,11.39,7.94,16.1.19.28.12.66-.16.85-.24.16-.54.13-.75-.04-3.96-3.44-7.32-6.09-10.85-7.85-1.94-.97-3.94-1.69-6.12-2.13,4.66,2.68,7.73,8,10.95,13.56,4.22,7.28,8.7,15,17.35,17.39-8.07-.51-15.06-1.63-21.66-2.69-14.84-2.38-27.64-4.44-45.82,1.85-.93.32-1.84.54-2.75.82,4.37-3.54,6.85-9.04,9.22-14.32,2.51-5.62,4.9-10.98,9.28-13.66-2.21.44-4.16,1.16-6.03,2.16-3.28,1.76-6.28,4.41-9.78,7.84-.19.19-.49.24-.72.1-.29-.16-.4-.53-.24-.82,2.63-4.7,4.19-10.31,5.79-16.09,2.31-8.28,4.7-16.91,10.5-23.92-14.61,8.75-18.57,22.69-21.75,33.89-.37,1.29-.72,2.54-1.07,3.72-.06.26-.31.47-.59.47-.34,0-.62-.28-.62-.62,0-5.47-.54-9.72-1.34-13.51-.71-23.57,2.73-42.24,10.84-58.75.29-.6.04-1.34-.56-1.63-.6-.29-1.34-.04-1.63.56-7.16,14.6-10.75,30.83-11.13,50.46-2.03-6.9-4.15-14.42-4.4-27.86-2.87,6.48-4.19,13.38-4.32,21.13-.01.91-.01,1.84,0,2.78v.09c.16,8,1.5,16.89,3.66,27.1.06.31-.12.6-.41.71-.32.1-.66-.07-.76-.4-1.24-3.88-2.6-7.47-4.07-10.81-2.91-29.99-7.35-63.08-23.05-76.4-.51-.44-1.28-.37-1.72.15s-.37,1.28.15,1.72c13.89,11.79,18.64,40.56,21.54,68.22-2.84-5.15-6.04-9.4-9.67-12.64-6.73-6-14.94-8.53-24.94-6.81.68.41,1.46.87,2.32,1.37,8.56,4.95,25.58,14.81,34.93,41.2.07.18.06.37-.04.54-.18.29-.54.38-.84.21-1.04-.63-2.18-1.4-3.4-2.23-4.72-3.22-10.76-7.32-17.92-7.2,2.07,1.59,4.57,4.84,7.45,8.59,5.25,6.82,11.81,15.34,18.54,17.86-8.79.74-17.47.28-26.44-.24-5.63-.32-11.45-.66-17.32-.66-.84,0-1.51.68-1.51,1.51s.68,1.51,1.51,1.51c5.78,0,11.56.32,17.16.65,5.51.31,11.12.63,16.78.63,9.82,0,19.91-.96,30.32-4.56,17.45-6.04,29.91-4.04,44.34-1.72,15.5,2.48,33.08,5.31,61.71.07,16.13-2.96,30.73-.85,46.2,1.37,17.04,2.46,34.67,4.98,57.06,1.68.82-.12,1.41-.9,1.28-1.72-.12-.84-.9-1.41-1.72-1.28l.1.09Z"/>
</svg>