<?xml version="1.0" encoding="UTF-8"?>
<svg id="Layer_1" data-name="Layer 1" xmlns="http://www.w3.org/2000/svg" viewBox="0 0 112.45 13.05">
  <defs>
    <style>
      .cls-1 {
        fill: #231f20;
        stroke-width: 0px;
      }
    </style>
  </defs>
  <g>
    <polygon class="cls-1" points="10.49 11.62 9.81 11.62 9.81 2.08 6.12 2.08 6.12 1.4 14.18 1.4 14.18 2.08 10.49 2.08 10.49 11.62"/>
    <path class="cls-1" d="M25.57,11.62h-.68V2.21c0-.06-.01-.11-.03-.16l-.29.03c-.06,0-.1,0-.12.02h0s-.03.03-.08.11l-2.2,3.32c-.23.34-.4.57-.52.7-.16.17-.41.26-.75.26s-.59-.09-.75-.26c-.12-.13-.3-.36-.52-.7l-2.2-3.31c-.06-.1-.09-.12-.09-.12-.03,0-.08-.02-.13-.02h-.27s-.04.07-.04.13v9.41h-.68V2.21c0-.51.27-.81.72-.81h.31c.13,0,.26.03.39.08.14.06.27.18.37.34l2.19,3.34c.24.37.36.52.42.57.09.09.49.09.58,0,.06-.06.18-.2.42-.57l2.2-3.35c.09-.15.21-.27.35-.33.12-.06.25-.09.38-.09h.31c.46,0,.74.3.74.81v9.41Z"/>
    <polygon class="cls-1" points="34.15 11.62 27.92 11.62 27.92 10.94 30.71 10.94 30.71 2.08 27.92 2.08 27.92 1.4 34.15 1.4 34.15 2.08 31.39 2.08 31.39 10.94 34.15 10.94 34.15 11.62"/>
  </g>
  <g>
    <path class="cls-1" d="M2.97,13.05h-.25c-.83,0-1.48-.16-1.95-.46-.5-.33-.76-.94-.76-1.82V2.28C0,1.41.25.79.75.46c.47-.31,1.13-.46,1.97-.46h.25v.68h-.25c-.67,0-1.19.11-1.55.33-.32.2-.48.62-.48,1.27v8.48c0,.64.17,1.06.49,1.26.37.23.88.34,1.54.34h.25v.68Z"/>
    <path class="cls-1" d="M37.56,13.05h-.25v-.68h.25c.66,0,1.18-.11,1.54-.34.33-.2.49-.63.49-1.26V2.28c0-.65-.16-1.08-.48-1.27-.36-.22-.88-.33-1.55-.33h-.25v-.68h.25c.84,0,1.5.16,1.96.46.5.33.75.94.75,1.82v8.48c0,.88-.26,1.49-.76,1.82-.47.31-1.13.46-1.95.46Z"/>
  </g>
  <rect class="cls-1" x="43.12" y="6.17" width="3.38" height=".68"/>
  <polygon class="cls-1" points="52.13 13.05 49.17 13.05 49.17 0 52.13 0 52.13 .68 49.85 .68 49.85 12.37 52.13 12.37 52.13 13.05"/>
  <polygon class="cls-1" points="63.51 13.05 60.54 13.05 60.54 12.37 62.83 12.37 62.83 .68 60.54 .68 60.54 0 63.51 0 63.51 13.05"/>
  <rect class="cls-1" x="66.17" y="6.17" width="3.38" height=".68"/>
  <g>
    <path class="cls-1" d="M86.35,11.62h-.13c-.14,0-.28-.03-.42-.08-.17-.06-.31-.19-.4-.37l-1.48-3.36c-.17-.39-.27-.5-.31-.53-.06-.05-.12-.07-.2-.07h-.81c-.08,0-.15.02-.2.07-.03.03-.13.14-.31.54l-1.48,3.35c-.07.18-.21.31-.4.38-.14.05-.29.08-.42.08h-.13c-.25,0-.69-.1-.84-.75l-.45-2.03c-.05-.25-.08-.55-.09-.93,0-.36,0-.67,0-.94V1.4h.68v5.54c0,.26,0,.57,0,.93,0,.34.03.62.08.83l.45,2.05s.04.09.09.14c.04.04.07.04.08.04h.09c.07,0,.15,0,.21-.03,0,0,.02-.01.04-.07l1.48-3.32c.17-.39.33-.63.48-.77.17-.15.38-.23.63-.23h.81c.25,0,.47.08.64.23.15.14.3.38.48.77l1.48,3.31c.03.05.05.07.06.08.07.02.14.03.2.03h.09s.05,0,.1-.05c.05-.05.06-.09.07-.11l.45-2.07c.04-.21.07-.49.07-.83,0-.36,0-.67,0-.93V1.4h.68v5.56c0,.26,0,.58,0,.94,0,.38-.04.69-.09.93l-.45,2.04c-.15.66-.59.75-.84.75Z"/>
    <polygon class="cls-1" points="96.59 11.62 90.02 11.62 90.02 1.4 96.59 1.4 96.59 2.08 90.7 2.08 90.7 6.1 95.13 6.1 95.13 6.78 90.7 6.78 90.7 10.94 96.59 10.94 96.59 11.62"/>
    <path class="cls-1" d="M103.92,11.62h-5.09V1.4h3.9c.72,0,1.25.09,1.63.29.39.2.66.48.79.82.12.32.19.67.19,1.05v1.15c0,.39-.07.76-.21,1.09-.06.14-.15.26-.27.37.28.05.51.13.7.23.38.21.65.5.78.87.12.34.19.73.19,1.15v1.15c0,.38-.06.73-.19,1.03-.14.34-.41.6-.8.77-.37.17-.9.25-1.61.25ZM99.51,10.94h4.41c.56,0,.99-.06,1.27-.18.25-.11.42-.25.51-.44.1-.21.15-.46.15-.75v-1.15c0-.33-.05-.62-.15-.87-.09-.23-.25-.41-.51-.54-.27-.15-.69-.22-1.26-.22h-4.43v4.16ZM99.51,6.1h3.22c.62,0,1.07-.07,1.33-.21.25-.13.41-.28.47-.47.08-.22.12-.46.12-.71v-1.15c0-.29-.05-.55-.14-.79-.08-.21-.25-.37-.51-.49-.28-.13-.71-.2-1.28-.2h-3.22v4.02Z"/>
  </g>
  <g>
    <path class="cls-1" d="M75.34,13.05h-.25c-.83,0-1.48-.16-1.95-.46-.5-.33-.76-.94-.76-1.82V2.28c0-.88.25-1.49.75-1.82.47-.31,1.13-.46,1.97-.46h.25v.68h-.25c-.67,0-1.19.11-1.55.33-.32.2-.48.62-.48,1.27v8.48c0,.64.17,1.06.49,1.26.37.23.88.34,1.54.34h.25v.68Z"/>
    <path class="cls-1" d="M109.73,13.05h-.25v-.68h.25c.66,0,1.18-.11,1.54-.34.33-.2.49-.63.49-1.26V2.28c0-.65-.16-1.08-.48-1.27-.36-.22-.88-.33-1.55-.33h-.25v-.68h.25c.84,0,1.5.16,1.96.46.5.33.75.94.75,1.82v8.48c0,.88-.26,1.49-.76,1.82-.47.31-1.13.46-1.95.46Z"/>
  </g>
</svg>